<svg xmlns="http://www.w3.org/2000/svg" xmlns:xlink="http://www.w3.org/1999/xlink" width="300" zoomAndPan="magnify" viewBox="0 0 224.87999 68.249996" height="91" preserveAspectRatio="xMidYMid meet" version="1.2"><defs><clipPath id="8057139722"><path d="M 1.164062 5.933594 L 56.800781 5.933594 L 56.800781 61.574219 L 1.164062 61.574219 Z M 1.164062 5.933594 "/></clipPath></defs><g id="30583929ef"><path style=" stroke:none;fill-rule:nonzero;fill:#2563eb;fill-opacity:1;" d="M 52.164062 33.753906 C 52.164062 34.511719 52.128906 35.269531 52.054688 36.027344 C 51.980469 36.78125 51.867188 37.53125 51.71875 38.277344 C 51.570312 39.019531 51.386719 39.757812 51.167969 40.484375 C 50.945312 41.210938 50.691406 41.925781 50.398438 42.625 C 50.109375 43.328125 49.785156 44.011719 49.425781 44.683594 C 49.070312 45.351562 48.679688 46.003906 48.257812 46.632812 C 47.835938 47.265625 47.382812 47.875 46.902344 48.460938 C 46.421875 49.046875 45.910156 49.609375 45.375 50.148438 C 44.839844 50.683594 44.277344 51.191406 43.6875 51.675781 C 43.101562 52.15625 42.492188 52.609375 41.863281 53.03125 C 41.230469 53.453125 40.578125 53.839844 39.910156 54.199219 C 39.242188 54.558594 38.554688 54.882812 37.855469 55.171875 C 37.152344 55.460938 36.4375 55.71875 35.710938 55.9375 C 34.984375 56.160156 34.25 56.34375 33.503906 56.492188 C 32.761719 56.640625 32.011719 56.75 31.253906 56.824219 C 30.5 56.898438 29.742188 56.9375 28.980469 56.9375 C 28.222656 56.9375 27.464844 56.898438 26.710938 56.824219 C 25.953125 56.75 25.203125 56.640625 24.460938 56.492188 C 23.714844 56.34375 22.980469 56.160156 22.253906 55.9375 C 21.527344 55.71875 20.8125 55.460938 20.109375 55.171875 C 19.410156 54.882812 18.722656 54.558594 18.054688 54.199219 C 17.382812 53.839844 16.734375 53.453125 16.101562 53.03125 C 15.472656 52.609375 14.863281 52.15625 14.273438 51.675781 C 13.6875 51.191406 13.125 50.683594 12.589844 50.148438 C 12.050781 49.609375 11.542969 49.046875 11.0625 48.460938 C 10.578125 47.875 10.128906 47.265625 9.707031 46.632812 C 9.285156 46.003906 8.894531 45.351562 8.535156 44.683594 C 8.179688 44.011719 7.855469 43.328125 7.5625 42.625 C 7.273438 41.925781 7.019531 41.210938 6.796875 40.484375 C 6.578125 39.757812 6.394531 39.019531 6.246094 38.277344 C 6.097656 37.53125 5.984375 36.78125 5.910156 36.027344 C 5.835938 35.269531 5.800781 34.511719 5.800781 33.753906 C 5.800781 32.996094 5.835938 32.238281 5.910156 31.480469 C 5.984375 30.726562 6.097656 29.976562 6.246094 29.230469 C 6.394531 28.488281 6.578125 27.75 6.796875 27.023438 C 7.019531 26.296875 7.273438 25.582031 7.5625 24.882812 C 7.855469 24.179688 8.179688 23.496094 8.535156 22.824219 C 8.894531 22.15625 9.285156 21.503906 9.707031 20.875 C 10.128906 20.242188 10.578125 19.632812 11.0625 19.046875 C 11.542969 18.460938 12.050781 17.898438 12.589844 17.363281 C 13.125 16.824219 13.6875 16.316406 14.273438 15.832031 C 14.863281 15.351562 15.472656 14.898438 16.101562 14.476562 C 16.734375 14.054688 17.382812 13.667969 18.054688 13.308594 C 18.722656 12.949219 19.410156 12.625 20.109375 12.335938 C 20.8125 12.046875 21.527344 11.789062 22.253906 11.570312 C 22.980469 11.347656 23.714844 11.164062 24.460938 11.015625 C 25.203125 10.867188 25.953125 10.757812 26.710938 10.683594 C 27.464844 10.609375 28.222656 10.570312 28.980469 10.570312 C 29.742188 10.570312 30.5 10.609375 31.253906 10.683594 C 32.011719 10.757812 32.761719 10.867188 33.503906 11.015625 C 34.25 11.164062 34.984375 11.347656 35.710938 11.570312 C 36.4375 11.789062 37.152344 12.046875 37.855469 12.335938 C 38.554688 12.625 39.242188 12.949219 39.910156 13.308594 C 40.578125 13.667969 41.230469 14.054688 41.863281 14.476562 C 42.492188 14.898438 43.101562 15.351562 43.6875 15.832031 C 44.277344 16.316406 44.839844 16.824219 45.375 17.363281 C 45.910156 17.898438 46.421875 18.460938 46.902344 19.046875 C 47.382812 19.632812 47.835938 20.242188 48.257812 20.875 C 48.679688 21.503906 49.070312 22.15625 49.425781 22.824219 C 49.785156 23.496094 50.109375 24.179688 50.398438 24.882812 C 50.691406 25.582031 50.945312 26.296875 51.167969 27.023438 C 51.386719 27.75 51.570312 28.488281 51.71875 29.230469 C 51.867188 29.976562 51.980469 30.726562 52.054688 31.480469 C 52.128906 32.238281 52.164062 32.996094 52.164062 33.753906 Z M 52.164062 33.753906 "/><g clip-rule="nonzero" clip-path="url(#8057139722)"><path style="fill:none;stroke-width:1;stroke-linecap:butt;stroke-linejoin:miter;stroke:#1e40af;stroke-opacity:1;stroke-miterlimit:4;" d="M 54.99914 29.999822 C 54.99914 30.817039 54.961228 31.634255 54.881191 32.451471 C 54.801154 33.264475 54.678993 34.073266 54.51892 34.877845 C 54.358847 35.678211 54.160861 36.474365 53.924964 37.257882 C 53.684854 38.041398 53.411044 38.812278 53.09511 39.566307 C 52.783389 40.324549 52.433755 41.061728 52.046209 41.78627 C 51.662876 42.5066 51.24163 43.21008 50.786685 43.888285 C 50.33174 44.570703 49.843095 45.227846 49.324963 45.859714 C 48.806831 46.491582 48.255 47.098176 47.677894 47.679494 C 47.100787 48.256601 46.494194 48.80422 45.858113 49.326564 C 45.226245 49.844696 44.569102 50.333341 43.890897 50.788286 C 43.208479 51.243231 42.504999 51.660264 41.78467 52.04781 C 41.06434 52.435356 40.322948 52.784989 39.568918 53.096711 C 38.810677 53.408433 38.039797 53.686455 37.256281 53.922352 C 36.472764 54.162462 35.680823 54.360448 34.876244 54.520521 C 34.075878 54.680594 33.267086 54.798543 32.44987 54.878579 C 31.636866 54.958616 30.81965 55.000741 29.998222 55.000741 C 29.181005 55.000741 28.363789 54.958616 27.550785 54.878579 C 26.733569 54.798543 25.924778 54.680594 25.124412 54.520521 C 24.319833 54.360448 23.527891 54.162462 22.744375 53.922352 C 21.960858 53.686455 21.189979 53.408433 20.431737 53.096711 C 19.677708 52.784989 18.936316 52.435356 18.215986 52.04781 C 17.491444 51.660264 16.792176 51.243231 16.109759 50.788286 C 15.431553 50.333341 14.774411 49.844696 14.13833 49.326564 C 13.506462 48.80422 12.899868 48.256601 12.322762 47.679494 C 11.741443 47.098176 11.193824 46.491582 10.675692 45.859714 C 10.153348 45.227846 9.668916 44.570703 9.21397 43.888285 C 8.759025 43.21008 8.33778 42.5066 7.950234 41.78627 C 7.566901 41.061728 7.217267 40.324549 6.901333 39.566307 C 6.589611 38.812278 6.315802 38.041398 6.075692 37.257882 C 5.839794 36.474365 5.641809 35.678211 5.481736 34.877845 C 5.321662 34.073266 5.199501 33.264475 5.119465 32.451471 C 5.039428 31.634255 5.001516 30.817039 5.001516 29.999822 C 5.001516 29.182606 5.039428 28.36539 5.119465 27.548174 C 5.199501 26.73517 5.321662 25.926379 5.481736 25.1218 C 5.641809 24.321434 5.839794 23.52528 6.075692 22.741763 C 6.315802 21.958247 6.589611 21.187367 6.901333 20.433338 C 7.217267 19.675096 7.566901 18.937917 7.950234 18.213374 C 8.33778 17.493045 8.759025 16.789565 9.21397 16.11136 C 9.668916 15.428942 10.153348 14.771799 10.675692 14.139931 C 11.193824 13.508063 11.741443 12.901469 12.322762 12.324363 C 12.899868 11.743044 13.506462 11.195425 14.13833 10.673081 C 14.774411 10.154949 15.431553 9.666304 16.109759 9.211359 C 16.792176 8.756414 17.491444 8.339381 18.215986 7.951835 C 18.936316 7.564289 19.677708 7.214655 20.431737 6.902934 C 21.189979 6.591212 21.960858 6.31319 22.744375 6.077293 C 23.527891 5.837183 24.319833 5.639197 25.124412 5.479124 C 25.924778 5.319051 26.733569 5.201102 27.550785 5.121066 C 28.363789 5.041029 29.181005 4.998904 29.998222 4.998904 C 30.81965 4.998904 31.636866 5.041029 32.44987 5.121066 C 33.267086 5.201102 34.075878 5.319051 34.876244 5.479124 C 35.680823 5.639197 36.472764 5.837183 37.256281 6.077293 C 38.039797 6.31319 38.810677 6.591212 39.568918 6.902934 C 40.322948 7.214655 41.06434 7.564289 41.78467 7.951835 C 42.504999 8.339381 43.208479 8.756414 43.890897 9.211359 C 44.569102 9.666304 45.226245 10.154949 45.858113 10.673081 C 46.494194 11.195425 47.100787 11.743044 47.677894 12.324363 C 48.255 12.901469 48.806831 13.508063 49.324963 14.139931 C 49.843095 14.771799 50.33174 15.428942 50.786685 16.11136 C 51.24163 16.789565 51.662876 17.493045 52.046209 18.213374 C 52.433755 18.937917 52.783389 19.675096 53.09511 20.433338 C 53.411044 21.187367 53.684854 21.958247 53.924964 22.741763 C 54.160861 23.52528 54.358847 24.321434 54.51892 25.1218 C 54.678993 25.926379 54.801154 26.73517 54.881191 27.548174 C 54.961228 28.36539 54.99914 29.182606 54.99914 29.999822 Z M 54.99914 29.999822 " transform="matrix(0.92731,0,0,0.92731,1.162827,5.93478)"/></g><path style=" stroke:none;fill-rule:nonzero;fill:#ffffff;fill-opacity:1;" d="M 30.835938 33.753906 C 30.835938 34 30.789062 34.238281 30.695312 34.464844 C 30.601562 34.691406 30.46875 34.890625 30.292969 35.066406 C 30.121094 35.238281 29.917969 35.375 29.691406 35.46875 C 29.464844 35.5625 29.226562 35.609375 28.980469 35.609375 C 28.734375 35.609375 28.5 35.5625 28.273438 35.46875 C 28.046875 35.375 27.84375 35.238281 27.671875 35.066406 C 27.496094 34.890625 27.363281 34.691406 27.269531 34.464844 C 27.175781 34.238281 27.128906 34 27.128906 33.753906 C 27.128906 33.507812 27.175781 33.273438 27.269531 33.042969 C 27.363281 32.816406 27.496094 32.617188 27.671875 32.441406 C 27.84375 32.269531 28.046875 32.132812 28.273438 32.039062 C 28.5 31.945312 28.734375 31.898438 28.980469 31.898438 C 29.226562 31.898438 29.464844 31.945312 29.691406 32.039062 C 29.917969 32.132812 30.121094 32.269531 30.292969 32.441406 C 30.46875 32.617188 30.601562 32.816406 30.695312 33.042969 C 30.789062 33.273438 30.835938 33.507812 30.835938 33.753906 Z M 30.835938 33.753906 "/><path style=" stroke:none;fill-rule:nonzero;fill:#ffffff;fill-opacity:1;" d="M 28.980469 22.625 L 32.691406 30.042969 L 28.980469 28.191406 L 25.273438 30.042969 Z M 28.980469 22.625 "/><path style=" stroke:none;fill-rule:nonzero;fill:#ffffff;fill-opacity:1;" d="M 40.109375 33.753906 L 32.691406 37.464844 L 34.546875 33.753906 L 32.691406 30.042969 Z M 40.109375 33.753906 "/><path style=" stroke:none;fill-rule:nonzero;fill:#ffffff;fill-opacity:1;" d="M 28.980469 44.882812 L 25.273438 37.464844 L 28.980469 39.316406 L 32.691406 37.464844 Z M 28.980469 44.882812 "/><path style=" stroke:none;fill-rule:nonzero;fill:#ffffff;fill-opacity:1;" d="M 17.855469 33.753906 L 25.273438 30.042969 L 23.417969 33.753906 L 25.273438 37.464844 Z M 17.855469 33.753906 "/><path style=" stroke:none;fill-rule:nonzero;fill:#ffffff;fill-opacity:0.8;" d="M 37.792969 26.335938 C 37.792969 26.519531 37.757812 26.699219 37.6875 26.867188 C 37.613281 27.039062 37.515625 27.1875 37.382812 27.320312 C 37.253906 27.449219 37.101562 27.550781 36.933594 27.621094 C 36.761719 27.691406 36.585938 27.726562 36.402344 27.726562 C 36.214844 27.726562 36.039062 27.691406 35.867188 27.621094 C 35.699219 27.550781 35.546875 27.449219 35.417969 27.320312 C 35.285156 27.1875 35.1875 27.039062 35.117188 26.867188 C 35.046875 26.699219 35.007812 26.519531 35.007812 26.335938 C 35.007812 26.152344 35.046875 25.972656 35.117188 25.804688 C 35.1875 25.632812 35.285156 25.484375 35.417969 25.351562 C 35.546875 25.222656 35.699219 25.121094 35.867188 25.050781 C 36.039062 24.980469 36.214844 24.945312 36.402344 24.945312 C 36.585938 24.945312 36.761719 24.980469 36.933594 25.050781 C 37.101562 25.121094 37.253906 25.222656 37.382812 25.351562 C 37.515625 25.484375 37.613281 25.632812 37.6875 25.804688 C 37.757812 25.972656 37.792969 26.152344 37.792969 26.335938 Z M 37.792969 26.335938 "/><path style=" stroke:none;fill-rule:nonzero;fill:#ffffff;fill-opacity:0.8;" d="M 37.792969 41.171875 C 37.792969 41.355469 37.757812 41.535156 37.6875 41.703125 C 37.613281 41.875 37.515625 42.027344 37.382812 42.15625 C 37.253906 42.285156 37.101562 42.386719 36.933594 42.457031 C 36.761719 42.527344 36.585938 42.5625 36.402344 42.5625 C 36.214844 42.5625 36.039062 42.527344 35.867188 42.457031 C 35.699219 42.386719 35.546875 42.285156 35.417969 42.15625 C 35.285156 42.027344 35.1875 41.875 35.117188 41.703125 C 35.046875 41.535156 35.007812 41.355469 35.007812 41.171875 C 35.007812 40.988281 35.046875 40.8125 35.117188 40.640625 C 35.1875 40.46875 35.285156 40.320312 35.417969 40.1875 C 35.546875 40.058594 35.699219 39.957031 35.867188 39.886719 C 36.039062 39.816406 36.214844 39.78125 36.402344 39.78125 C 36.585938 39.78125 36.761719 39.816406 36.933594 39.886719 C 37.101562 39.957031 37.253906 40.058594 37.382812 40.1875 C 37.515625 40.320312 37.613281 40.46875 37.6875 40.640625 C 37.757812 40.8125 37.792969 40.988281 37.792969 41.171875 Z M 37.792969 41.171875 "/><path style=" stroke:none;fill-rule:nonzero;fill:#ffffff;fill-opacity:0.8;" d="M 22.953125 41.171875 C 22.953125 41.355469 22.917969 41.535156 22.847656 41.703125 C 22.777344 41.875 22.675781 42.027344 22.546875 42.15625 C 22.417969 42.285156 22.265625 42.386719 22.097656 42.457031 C 21.925781 42.527344 21.75 42.5625 21.5625 42.5625 C 21.378906 42.5625 21.203125 42.527344 21.03125 42.457031 C 20.859375 42.386719 20.710938 42.285156 20.582031 42.15625 C 20.449219 42.027344 20.347656 41.875 20.277344 41.703125 C 20.207031 41.535156 20.171875 41.355469 20.171875 41.171875 C 20.171875 40.988281 20.207031 40.8125 20.277344 40.640625 C 20.347656 40.46875 20.449219 40.320312 20.582031 40.1875 C 20.710938 40.058594 20.859375 39.957031 21.03125 39.886719 C 21.203125 39.816406 21.378906 39.78125 21.5625 39.78125 C 21.75 39.78125 21.925781 39.816406 22.097656 39.886719 C 22.265625 39.957031 22.417969 40.058594 22.546875 40.1875 C 22.675781 40.320312 22.777344 40.46875 22.847656 40.640625 C 22.917969 40.8125 22.953125 40.988281 22.953125 41.171875 Z M 22.953125 41.171875 "/><path style=" stroke:none;fill-rule:nonzero;fill:#ffffff;fill-opacity:0.8;" d="M 22.953125 26.335938 C 22.953125 26.519531 22.917969 26.699219 22.847656 26.867188 C 22.777344 27.039062 22.675781 27.1875 22.546875 27.320312 C 22.417969 27.449219 22.265625 27.550781 22.097656 27.621094 C 21.925781 27.691406 21.75 27.726562 21.5625 27.726562 C 21.378906 27.726562 21.203125 27.691406 21.03125 27.621094 C 20.859375 27.550781 20.710938 27.449219 20.582031 27.320312 C 20.449219 27.1875 20.347656 27.039062 20.277344 26.867188 C 20.207031 26.699219 20.171875 26.519531 20.171875 26.335938 C 20.171875 26.152344 20.207031 25.972656 20.277344 25.804688 C 20.347656 25.632812 20.449219 25.484375 20.582031 25.351562 C 20.710938 25.222656 20.859375 25.121094 21.03125 25.050781 C 21.203125 24.980469 21.378906 24.945312 21.5625 24.945312 C 21.75 24.945312 21.925781 24.980469 22.097656 25.050781 C 22.265625 25.121094 22.417969 25.222656 22.546875 25.351562 C 22.675781 25.484375 22.777344 25.632812 22.847656 25.804688 C 22.917969 25.972656 22.953125 26.152344 22.953125 26.335938 Z M 22.953125 26.335938 "/><path style="fill:none;stroke-width:0.5;stroke-linecap:butt;stroke-linejoin:miter;stroke:#ffffff;stroke-opacity:0.6;stroke-miterlimit:4;" d="M -0.00177846 -0.000177527 L 8.001885 -7.999629 " transform="matrix(0.92731,0,0,0.92731,28.982118,33.754071)"/><path style="fill:none;stroke-width:0.5;stroke-linecap:butt;stroke-linejoin:miter;stroke:#ffffff;stroke-opacity:0.6;stroke-miterlimit:4;" d="M -0.00177846 -0.000177527 L 8.001885 7.999274 " transform="matrix(0.92731,0,0,0.92731,28.982118,33.754071)"/><path style="fill:none;stroke-width:0.5;stroke-linecap:butt;stroke-linejoin:miter;stroke:#ffffff;stroke-opacity:0.6;stroke-miterlimit:4;" d="M -0.00177846 -0.000177527 L -8.00123 7.999274 " transform="matrix(0.92731,0,0,0.92731,28.982118,33.754071)"/><path style="fill:none;stroke-width:0.5;stroke-linecap:butt;stroke-linejoin:miter;stroke:#ffffff;stroke-opacity:0.6;stroke-miterlimit:4;" d="M -0.00177846 -0.000177527 L -8.00123 -7.999629 " transform="matrix(0.92731,0,0,0.92731,28.982118,33.754071)"/><g style="fill:#383b46;fill-opacity:1;"><g transform="translate(58.996141, 33.390067)"><path style="stroke:none" d="M 3.6875 0 L 1.46875 0 L 1.46875 -11.25 L 3.6875 -11.25 Z M 3.6875 0 "/></g></g><g style="fill:#383b46;fill-opacity:1;"><g transform="translate(64.148655, 33.390067)"><path style="stroke:none" d="M 9.015625 -11.25 L 9.015625 -9.375 L 5.765625 -9.375 L 5.765625 0 L 3.546875 0 L 3.546875 -9.375 L 0.3125 -9.375 L 0.3125 -11.25 Z M 9.015625 -11.25 "/></g></g><g style="fill:#383b46;fill-opacity:1;"><g transform="translate(73.469323, 33.390067)"><path style="stroke:none" d=""/></g></g><g style="fill:#383b46;fill-opacity:1;"><g transform="translate(77.183755, 33.390067)"><path style="stroke:none" d="M 4.984375 0.15625 C 4.203125 0.15625 3.503906 0.0625 2.890625 -0.125 C 2.285156 -0.320312 1.78125 -0.578125 1.375 -0.890625 C 0.976562 -1.203125 0.671875 -1.546875 0.453125 -1.921875 L 1.671875 -3.40625 L 1.875 -3.40625 C 2.207031 -2.90625 2.632812 -2.503906 3.15625 -2.203125 C 3.675781 -1.910156 4.285156 -1.765625 4.984375 -1.765625 C 5.578125 -1.765625 6.023438 -1.890625 6.328125 -2.140625 C 6.628906 -2.390625 6.78125 -2.734375 6.78125 -3.171875 C 6.78125 -3.441406 6.726562 -3.664062 6.625 -3.84375 C 6.53125 -4.019531 6.367188 -4.171875 6.140625 -4.296875 C 5.921875 -4.429688 5.617188 -4.546875 5.234375 -4.640625 L 3.796875 -4.96875 C 2.785156 -5.195312 2.03125 -5.578125 1.53125 -6.109375 C 1.039062 -6.648438 0.796875 -7.347656 0.796875 -8.203125 C 0.796875 -8.835938 0.953125 -9.394531 1.265625 -9.875 C 1.585938 -10.363281 2.050781 -10.738281 2.65625 -11 C 3.257812 -11.269531 3.988281 -11.40625 4.84375 -11.40625 C 5.707031 -11.40625 6.445312 -11.289062 7.0625 -11.0625 C 7.675781 -10.832031 8.195312 -10.484375 8.625 -10.015625 L 7.53125 -8.5 L 7.34375 -8.5 C 7.019531 -8.832031 6.648438 -9.082031 6.234375 -9.25 C 5.828125 -9.414062 5.363281 -9.5 4.84375 -9.5 C 4.226562 -9.5 3.757812 -9.390625 3.4375 -9.171875 C 3.125 -8.960938 2.96875 -8.671875 2.96875 -8.296875 C 2.96875 -7.941406 3.078125 -7.65625 3.296875 -7.4375 C 3.523438 -7.226562 3.910156 -7.066406 4.453125 -6.953125 L 5.9375 -6.640625 C 7.03125 -6.410156 7.820312 -6.019531 8.3125 -5.46875 C 8.800781 -4.914062 9.046875 -4.195312 9.046875 -3.3125 C 9.046875 -2.613281 8.894531 -2.003906 8.59375 -1.484375 C 8.289062 -0.960938 7.832031 -0.554688 7.21875 -0.265625 C 6.613281 0.015625 5.867188 0.15625 4.984375 0.15625 Z M 4.984375 0.15625 "/></g></g><g style="fill:#383b46;fill-opacity:1;"><g transform="translate(86.842797, 33.390067)"><path style="stroke:none" d="M 5.859375 -2.015625 L 6.40625 -0.453125 C 6.175781 -0.253906 5.882812 -0.101562 5.53125 0 C 5.1875 0.101562 4.796875 0.15625 4.359375 0.15625 C 3.429688 0.15625 2.726562 -0.09375 2.25 -0.59375 C 1.78125 -1.09375 1.546875 -1.816406 1.546875 -2.765625 L 1.546875 -6.796875 L 0.25 -6.796875 L 0.25 -8.484375 L 1.546875 -8.484375 L 1.546875 -10.140625 L 3.671875 -10.484375 L 3.671875 -8.484375 L 6.078125 -8.484375 L 6.078125 -6.796875 L 3.671875 -6.796875 L 3.671875 -2.921875 C 3.671875 -2.503906 3.757812 -2.195312 3.9375 -2 C 4.113281 -1.8125 4.367188 -1.71875 4.703125 -1.71875 C 5.078125 -1.71875 5.40625 -1.816406 5.6875 -2.015625 Z M 5.859375 -2.015625 "/></g></g><g style="fill:#383b46;fill-opacity:1;"><g transform="translate(93.433409, 33.390067)"><path style="stroke:none" d="M 1.21875 0 L 1.21875 -8.484375 L 3.296875 -8.484375 L 3.296875 -7.21875 L 3.453125 -7.1875 C 3.660156 -7.65625 3.929688 -8 4.265625 -8.21875 C 4.597656 -8.445312 5 -8.5625 5.46875 -8.5625 C 5.957031 -8.5625 6.328125 -8.476562 6.578125 -8.3125 L 6.21875 -6.46875 L 6.046875 -6.4375 C 5.910156 -6.5 5.773438 -6.539062 5.640625 -6.5625 C 5.515625 -6.59375 5.363281 -6.609375 5.1875 -6.609375 C 4.59375 -6.609375 4.140625 -6.398438 3.828125 -5.984375 C 3.515625 -5.566406 3.359375 -4.894531 3.359375 -3.96875 L 3.359375 0 Z M 1.21875 0 "/></g></g><g style="fill:#383b46;fill-opacity:1;"><g transform="translate(99.923996, 33.390067)"><path style="stroke:none" d="M 3.3125 0.15625 C 2.757812 0.15625 2.285156 0.0546875 1.890625 -0.140625 C 1.492188 -0.335938 1.1875 -0.628906 0.96875 -1.015625 C 0.75 -1.398438 0.640625 -1.867188 0.640625 -2.421875 C 0.640625 -2.921875 0.75 -3.335938 0.96875 -3.671875 C 1.1875 -4.015625 1.519531 -4.296875 1.96875 -4.515625 C 2.414062 -4.734375 3.003906 -4.898438 3.734375 -5.015625 C 4.242188 -5.097656 4.628906 -5.1875 4.890625 -5.28125 C 5.160156 -5.382812 5.335938 -5.5 5.421875 -5.625 C 5.515625 -5.75 5.5625 -5.90625 5.5625 -6.09375 C 5.5625 -6.363281 5.46875 -6.566406 5.28125 -6.703125 C 5.09375 -6.847656 4.78125 -6.921875 4.34375 -6.921875 C 3.863281 -6.921875 3.410156 -6.816406 2.984375 -6.609375 C 2.566406 -6.398438 2.203125 -6.125 1.890625 -5.78125 L 1.734375 -5.78125 L 0.84375 -7.125 C 1.269531 -7.601562 1.789062 -7.972656 2.40625 -8.234375 C 3.03125 -8.503906 3.707031 -8.640625 4.4375 -8.640625 C 5.5625 -8.640625 6.375 -8.398438 6.875 -7.921875 C 7.382812 -7.453125 7.640625 -6.78125 7.640625 -5.90625 L 7.640625 -2.21875 C 7.640625 -1.832031 7.804688 -1.640625 8.140625 -1.640625 C 8.265625 -1.640625 8.390625 -1.664062 8.515625 -1.71875 L 8.625 -1.6875 L 8.78125 -0.203125 C 8.65625 -0.117188 8.488281 -0.0507812 8.28125 0 C 8.070312 0.0390625 7.84375 0.0625 7.59375 0.0625 C 7.082031 0.0625 6.679688 -0.03125 6.390625 -0.21875 C 6.109375 -0.414062 5.910156 -0.722656 5.796875 -1.140625 L 5.625 -1.15625 C 5.207031 -0.28125 4.4375 0.15625 3.3125 0.15625 Z M 3.984375 -1.4375 C 4.472656 -1.4375 4.863281 -1.597656 5.15625 -1.921875 C 5.457031 -2.253906 5.609375 -2.71875 5.609375 -3.3125 L 5.609375 -4.171875 L 5.453125 -4.203125 C 5.328125 -4.097656 5.160156 -4.007812 4.953125 -3.9375 C 4.742188 -3.875 4.445312 -3.804688 4.0625 -3.734375 C 3.601562 -3.660156 3.269531 -3.53125 3.0625 -3.34375 C 2.863281 -3.15625 2.765625 -2.890625 2.765625 -2.546875 C 2.765625 -2.179688 2.867188 -1.90625 3.078125 -1.71875 C 3.296875 -1.53125 3.597656 -1.4375 3.984375 -1.4375 Z M 3.984375 -1.4375 "/></g></g><g style="fill:#383b46;fill-opacity:1;"><g transform="translate(108.767836, 33.390067)"><path style="stroke:none" d="M 5.859375 -2.015625 L 6.40625 -0.453125 C 6.175781 -0.253906 5.882812 -0.101562 5.53125 0 C 5.1875 0.101562 4.796875 0.15625 4.359375 0.15625 C 3.429688 0.15625 2.726562 -0.09375 2.25 -0.59375 C 1.78125 -1.09375 1.546875 -1.816406 1.546875 -2.765625 L 1.546875 -6.796875 L 0.25 -6.796875 L 0.25 -8.484375 L 1.546875 -8.484375 L 1.546875 -10.140625 L 3.671875 -10.484375 L 3.671875 -8.484375 L 6.078125 -8.484375 L 6.078125 -6.796875 L 3.671875 -6.796875 L 3.671875 -2.921875 C 3.671875 -2.503906 3.757812 -2.195312 3.9375 -2 C 4.113281 -1.8125 4.367188 -1.71875 4.703125 -1.71875 C 5.078125 -1.71875 5.40625 -1.816406 5.6875 -2.015625 Z M 5.859375 -2.015625 "/></g></g><g style="fill:#383b46;fill-opacity:1;"><g transform="translate(115.258438, 33.390067)"><path style="stroke:none" d="M 8.375 -3.765625 L 2.9375 -3.765625 C 2.988281 -3.023438 3.191406 -2.484375 3.546875 -2.140625 C 3.910156 -1.804688 4.40625 -1.640625 5.03125 -1.640625 C 5.519531 -1.640625 5.914062 -1.726562 6.21875 -1.90625 C 6.519531 -2.09375 6.757812 -2.375 6.9375 -2.75 L 7.109375 -2.75 L 8.515625 -1.84375 C 8.242188 -1.25 7.828125 -0.765625 7.265625 -0.390625 C 6.703125 -0.0234375 5.957031 0.15625 5.03125 0.15625 C 4.15625 0.15625 3.394531 -0.0078125 2.75 -0.34375 C 2.113281 -0.675781 1.625 -1.171875 1.28125 -1.828125 C 0.9375 -2.484375 0.765625 -3.285156 0.765625 -4.234375 C 0.765625 -5.203125 0.945312 -6.015625 1.3125 -6.671875 C 1.675781 -7.335938 2.164062 -7.832031 2.78125 -8.15625 C 3.40625 -8.476562 4.101562 -8.640625 4.875 -8.640625 C 6.070312 -8.640625 6.988281 -8.320312 7.625 -7.6875 C 8.269531 -7.050781 8.59375 -6.117188 8.59375 -4.890625 C 8.59375 -4.441406 8.578125 -4.097656 8.546875 -3.859375 Z M 6.546875 -5.140625 C 6.523438 -5.785156 6.375 -6.253906 6.09375 -6.546875 C 5.820312 -6.835938 5.414062 -6.984375 4.875 -6.984375 C 3.800781 -6.984375 3.164062 -6.367188 2.96875 -5.140625 Z M 6.546875 -5.140625 "/></g></g><g style="fill:#383b46;fill-opacity:1;"><g transform="translate(124.379129, 33.390067)"><path style="stroke:none" d="M 4.40625 3.59375 C 3 3.59375 1.960938 3.390625 1.296875 2.984375 C 0.628906 2.578125 0.296875 2.003906 0.296875 1.265625 C 0.296875 0.816406 0.4375 0.453125 0.71875 0.171875 C 1.007812 -0.109375 1.421875 -0.300781 1.953125 -0.40625 L 1.953125 -0.5625 C 1.660156 -0.738281 1.453125 -0.929688 1.328125 -1.140625 C 1.203125 -1.359375 1.140625 -1.609375 1.140625 -1.890625 C 1.140625 -2.566406 1.582031 -3.023438 2.46875 -3.265625 L 2.46875 -3.421875 C 2.019531 -3.679688 1.675781 -4.003906 1.4375 -4.390625 C 1.207031 -4.773438 1.09375 -5.242188 1.09375 -5.796875 C 1.09375 -6.359375 1.222656 -6.851562 1.484375 -7.28125 C 1.742188 -7.707031 2.125 -8.039062 2.625 -8.28125 C 3.125 -8.519531 3.722656 -8.640625 4.421875 -8.640625 C 5.128906 -8.640625 5.691406 -8.519531 6.109375 -8.28125 C 6.367188 -8.65625 6.519531 -9.09375 6.5625 -9.59375 L 6.734375 -9.6875 L 8.265625 -9.3125 C 8.210938 -8.90625 8.09375 -8.5625 7.90625 -8.28125 C 7.71875 -8.007812 7.421875 -7.769531 7.015625 -7.5625 L 7.015625 -7.390625 C 7.492188 -6.972656 7.734375 -6.382812 7.734375 -5.625 C 7.734375 -5.101562 7.601562 -4.632812 7.34375 -4.21875 C 7.082031 -3.800781 6.703125 -3.472656 6.203125 -3.234375 C 5.703125 -2.992188 5.109375 -2.875 4.421875 -2.875 L 4.09375 -2.890625 C 3.894531 -2.898438 3.753906 -2.90625 3.671875 -2.90625 C 3.472656 -2.90625 3.316406 -2.847656 3.203125 -2.734375 C 3.097656 -2.628906 3.046875 -2.5 3.046875 -2.34375 C 3.046875 -2.15625 3.113281 -2.007812 3.25 -1.90625 C 3.394531 -1.8125 3.609375 -1.757812 3.890625 -1.75 L 5.796875 -1.6875 C 7.671875 -1.625 8.609375 -0.816406 8.609375 0.734375 C 8.609375 1.285156 8.46875 1.773438 8.1875 2.203125 C 7.90625 2.628906 7.453125 2.96875 6.828125 3.21875 C 6.203125 3.46875 5.394531 3.59375 4.40625 3.59375 Z M 4.421875 -4.375 C 4.828125 -4.375 5.144531 -4.492188 5.375 -4.734375 C 5.613281 -4.972656 5.734375 -5.316406 5.734375 -5.765625 C 5.734375 -6.203125 5.613281 -6.539062 5.375 -6.78125 C 5.144531 -7.019531 4.828125 -7.140625 4.421875 -7.140625 C 4.003906 -7.140625 3.679688 -7.019531 3.453125 -6.78125 C 3.234375 -6.539062 3.125 -6.203125 3.125 -5.765625 C 3.125 -5.304688 3.234375 -4.957031 3.453125 -4.71875 C 3.679688 -4.488281 4.003906 -4.375 4.421875 -4.375 Z M 4.40625 2.046875 C 5.125 2.046875 5.648438 1.941406 5.984375 1.734375 C 6.316406 1.535156 6.484375 1.273438 6.484375 0.953125 C 6.484375 0.679688 6.394531 0.484375 6.21875 0.359375 C 6.050781 0.234375 5.785156 0.164062 5.421875 0.15625 L 3.75 0.078125 C 3.6875 0.078125 3.628906 0.0703125 3.578125 0.0625 C 3.535156 0.0625 3.492188 0.0625 3.453125 0.0625 C 3.085938 0.0625 2.8125 0.132812 2.625 0.28125 C 2.4375 0.4375 2.34375 0.65625 2.34375 0.9375 C 2.34375 1.289062 2.515625 1.5625 2.859375 1.75 C 3.203125 1.945312 3.71875 2.046875 4.40625 2.046875 Z M 4.40625 2.046875 "/></g></g><g style="fill:#383b46;fill-opacity:1;"><g transform="translate(133.199934, 33.390067)"><path style="stroke:none" d="M 1.875 3.59375 C 1.507812 3.59375 1.179688 3.566406 0.890625 3.515625 C 0.597656 3.460938 0.359375 3.390625 0.171875 3.296875 L 0.5 1.5625 L 0.640625 1.515625 C 0.773438 1.585938 0.9375 1.644531 1.125 1.6875 C 1.3125 1.726562 1.503906 1.75 1.703125 1.75 C 2.046875 1.75 2.332031 1.703125 2.5625 1.609375 C 2.789062 1.523438 2.984375 1.378906 3.140625 1.171875 C 3.304688 0.960938 3.445312 0.671875 3.5625 0.296875 L 0.1875 -8.484375 L 2.421875 -8.484375 L 4.515625 -2.578125 L 4.703125 -2.578125 L 6.765625 -8.484375 L 8.921875 -8.484375 L 5.515625 0.53125 C 5.242188 1.257812 4.945312 1.84375 4.625 2.28125 C 4.300781 2.726562 3.914062 3.054688 3.46875 3.265625 C 3.03125 3.484375 2.5 3.59375 1.875 3.59375 Z M 1.875 3.59375 "/></g></g><g style="fill:#383b46;fill-opacity:1;"><g transform="translate(142.305273, 33.390067)"><path style="stroke:none" d=""/></g></g><g style="fill:#383b46;fill-opacity:1;"><g transform="translate(146.019704, 33.390067)"><path style="stroke:none" d="M 10.796875 0 L 8.453125 0 L 7.609375 -2.59375 L 3.296875 -2.59375 L 2.453125 0 L 0.171875 0 L 4.046875 -11.25 L 6.90625 -11.25 Z M 5.34375 -8.890625 L 3.90625 -4.453125 L 6.984375 -4.453125 L 5.53125 -8.890625 Z M 5.34375 -8.890625 "/></g></g><g style="fill:#383b46;fill-opacity:1;"><g transform="translate(156.978417, 33.390067)"><path style="stroke:none" d="M 4.1875 0.15625 C 3.519531 0.15625 2.925781 -0.00390625 2.40625 -0.328125 C 1.894531 -0.648438 1.492188 -1.140625 1.203125 -1.796875 C 0.910156 -2.460938 0.765625 -3.273438 0.765625 -4.234375 C 0.765625 -5.203125 0.910156 -6.015625 1.203125 -6.671875 C 1.503906 -7.335938 1.921875 -7.832031 2.453125 -8.15625 C 2.984375 -8.476562 3.597656 -8.640625 4.296875 -8.640625 C 4.828125 -8.640625 5.285156 -8.546875 5.671875 -8.359375 C 6.054688 -8.179688 6.382812 -7.898438 6.65625 -7.515625 L 6.8125 -7.5625 L 6.8125 -11.890625 L 8.9375 -11.890625 L 8.9375 0 L 6.8125 0 L 6.8125 -1.09375 L 6.65625 -1.125 C 6.414062 -0.726562 6.085938 -0.414062 5.671875 -0.1875 C 5.265625 0.0390625 4.769531 0.15625 4.1875 0.15625 Z M 4.890625 -1.640625 C 5.484375 -1.640625 5.953125 -1.851562 6.296875 -2.28125 C 6.648438 -2.71875 6.828125 -3.367188 6.828125 -4.234375 C 6.828125 -5.109375 6.648438 -5.757812 6.296875 -6.1875 C 5.953125 -6.625 5.484375 -6.84375 4.890625 -6.84375 C 4.253906 -6.84375 3.769531 -6.628906 3.4375 -6.203125 C 3.113281 -5.785156 2.953125 -5.128906 2.953125 -4.234375 C 2.953125 -3.347656 3.113281 -2.691406 3.4375 -2.265625 C 3.769531 -1.847656 4.253906 -1.640625 4.890625 -1.640625 Z M 4.890625 -1.640625 "/></g></g><g style="fill:#383b46;fill-opacity:1;"><g transform="translate(167.145021, 33.390067)"><path style="stroke:none" d="M 5.84375 0 L 3.296875 0 L 0.15625 -8.484375 L 2.390625 -8.484375 L 4.5 -2.4375 L 4.671875 -2.4375 L 6.796875 -8.484375 L 8.96875 -8.484375 Z M 5.84375 0 "/></g></g><g style="fill:#383b46;fill-opacity:1;"><g transform="translate(176.26574, 33.390067)"><path style="stroke:none" d="M 2.28125 -9.5 C 1.894531 -9.5 1.582031 -9.613281 1.34375 -9.84375 C 1.101562 -10.082031 0.984375 -10.382812 0.984375 -10.75 C 0.984375 -11.113281 1.101562 -11.410156 1.34375 -11.640625 C 1.582031 -11.878906 1.894531 -12 2.28125 -12 C 2.539062 -12 2.769531 -11.941406 2.96875 -11.828125 C 3.164062 -11.722656 3.316406 -11.578125 3.421875 -11.390625 C 3.535156 -11.203125 3.59375 -10.988281 3.59375 -10.75 C 3.59375 -10.507812 3.535156 -10.296875 3.421875 -10.109375 C 3.316406 -9.921875 3.164062 -9.769531 2.96875 -9.65625 C 2.769531 -9.550781 2.539062 -9.5 2.28125 -9.5 Z M 1.21875 0 L 1.21875 -8.484375 L 3.359375 -8.484375 L 3.359375 0 Z M 1.21875 0 "/></g></g><g style="fill:#383b46;fill-opacity:1;"><g transform="translate(180.83379, 33.390067)"><path style="stroke:none" d="M 3.96875 0.15625 C 3.382812 0.15625 2.851562 0.0859375 2.375 -0.046875 C 1.894531 -0.179688 1.484375 -0.367188 1.140625 -0.609375 C 0.796875 -0.847656 0.546875 -1.117188 0.390625 -1.421875 L 1.5625 -2.703125 L 1.734375 -2.703125 C 2.015625 -2.316406 2.347656 -2.03125 2.734375 -1.84375 C 3.117188 -1.65625 3.535156 -1.5625 3.984375 -1.5625 C 4.398438 -1.5625 4.710938 -1.632812 4.921875 -1.78125 C 5.128906 -1.925781 5.234375 -2.140625 5.234375 -2.421875 C 5.234375 -2.640625 5.15625 -2.820312 5 -2.96875 C 4.851562 -3.113281 4.613281 -3.226562 4.28125 -3.3125 L 3.15625 -3.578125 C 2.3125 -3.773438 1.695312 -4.078125 1.3125 -4.484375 C 0.925781 -4.898438 0.734375 -5.425781 0.734375 -6.0625 C 0.734375 -6.59375 0.863281 -7.050781 1.125 -7.4375 C 1.394531 -7.832031 1.773438 -8.128906 2.265625 -8.328125 C 2.753906 -8.535156 3.328125 -8.640625 3.984375 -8.640625 C 4.742188 -8.640625 5.375 -8.53125 5.875 -8.3125 C 6.382812 -8.09375 6.78125 -7.796875 7.0625 -7.421875 L 5.921875 -6.203125 L 5.765625 -6.203125 C 5.535156 -6.460938 5.269531 -6.65625 4.96875 -6.78125 C 4.675781 -6.90625 4.347656 -6.96875 3.984375 -6.96875 C 3.140625 -6.96875 2.71875 -6.707031 2.71875 -6.1875 C 2.71875 -5.96875 2.796875 -5.785156 2.953125 -5.640625 C 3.109375 -5.503906 3.382812 -5.394531 3.78125 -5.3125 L 4.828125 -5.078125 C 5.691406 -4.890625 6.320312 -4.59375 6.71875 -4.1875 C 7.113281 -3.78125 7.3125 -3.234375 7.3125 -2.546875 C 7.3125 -2.003906 7.175781 -1.523438 6.90625 -1.109375 C 6.644531 -0.703125 6.257812 -0.390625 5.75 -0.171875 C 5.25 0.046875 4.65625 0.15625 3.96875 0.15625 Z M 3.96875 0.15625 "/></g></g><g style="fill:#383b46;fill-opacity:1;"><g transform="translate(188.654853, 33.390067)"><path style="stroke:none" d="M 4.921875 0.15625 C 4.097656 0.15625 3.367188 -0.0078125 2.734375 -0.34375 C 2.109375 -0.6875 1.625 -1.1875 1.28125 -1.84375 C 0.9375 -2.507812 0.765625 -3.304688 0.765625 -4.234375 C 0.765625 -5.171875 0.9375 -5.96875 1.28125 -6.625 C 1.625 -7.289062 2.109375 -7.789062 2.734375 -8.125 C 3.367188 -8.46875 4.097656 -8.640625 4.921875 -8.640625 C 5.753906 -8.640625 6.484375 -8.46875 7.109375 -8.125 C 7.742188 -7.789062 8.234375 -7.289062 8.578125 -6.625 C 8.929688 -5.96875 9.109375 -5.171875 9.109375 -4.234375 C 9.109375 -3.304688 8.929688 -2.507812 8.578125 -1.84375 C 8.234375 -1.1875 7.742188 -0.6875 7.109375 -0.34375 C 6.484375 -0.0078125 5.753906 0.15625 4.921875 0.15625 Z M 4.921875 -1.640625 C 6.242188 -1.640625 6.90625 -2.503906 6.90625 -4.234375 C 6.90625 -5.128906 6.734375 -5.785156 6.390625 -6.203125 C 6.054688 -6.628906 5.566406 -6.84375 4.921875 -6.84375 C 3.609375 -6.84375 2.953125 -5.972656 2.953125 -4.234375 C 2.953125 -2.503906 3.609375 -1.640625 4.921875 -1.640625 Z M 4.921875 -1.640625 "/></g></g><g style="fill:#383b46;fill-opacity:1;"><g transform="translate(198.513844, 33.390067)"><path style="stroke:none" d="M 1.21875 0 L 1.21875 -8.484375 L 3.296875 -8.484375 L 3.296875 -7.21875 L 3.453125 -7.1875 C 3.660156 -7.65625 3.929688 -8 4.265625 -8.21875 C 4.597656 -8.445312 5 -8.5625 5.46875 -8.5625 C 5.957031 -8.5625 6.328125 -8.476562 6.578125 -8.3125 L 6.21875 -6.46875 L 6.046875 -6.4375 C 5.910156 -6.5 5.773438 -6.539062 5.640625 -6.5625 C 5.515625 -6.59375 5.363281 -6.609375 5.1875 -6.609375 C 4.59375 -6.609375 4.140625 -6.398438 3.828125 -5.984375 C 3.515625 -5.566406 3.359375 -4.894531 3.359375 -3.96875 L 3.359375 0 Z M 1.21875 0 "/></g></g><g style="fill:#383b46;fill-opacity:1;"><g transform="translate(205.165978, 33.390067)"><path style="stroke:none" d="M 3.96875 0.15625 C 3.382812 0.15625 2.851562 0.0859375 2.375 -0.046875 C 1.894531 -0.179688 1.484375 -0.367188 1.140625 -0.609375 C 0.796875 -0.847656 0.546875 -1.117188 0.390625 -1.421875 L 1.5625 -2.703125 L 1.734375 -2.703125 C 2.015625 -2.316406 2.347656 -2.03125 2.734375 -1.84375 C 3.117188 -1.65625 3.535156 -1.5625 3.984375 -1.5625 C 4.398438 -1.5625 4.710938 -1.632812 4.921875 -1.78125 C 5.128906 -1.925781 5.234375 -2.140625 5.234375 -2.421875 C 5.234375 -2.640625 5.15625 -2.820312 5 -2.96875 C 4.851562 -3.113281 4.613281 -3.226562 4.28125 -3.3125 L 3.15625 -3.578125 C 2.3125 -3.773438 1.695312 -4.078125 1.3125 -4.484375 C 0.925781 -4.898438 0.734375 -5.425781 0.734375 -6.0625 C 0.734375 -6.59375 0.863281 -7.050781 1.125 -7.4375 C 1.394531 -7.832031 1.773438 -8.128906 2.265625 -8.328125 C 2.753906 -8.535156 3.328125 -8.640625 3.984375 -8.640625 C 4.742188 -8.640625 5.375 -8.53125 5.875 -8.3125 C 6.382812 -8.09375 6.78125 -7.796875 7.0625 -7.421875 L 5.921875 -6.203125 L 5.765625 -6.203125 C 5.535156 -6.460938 5.269531 -6.65625 4.96875 -6.78125 C 4.675781 -6.90625 4.347656 -6.96875 3.984375 -6.96875 C 3.140625 -6.96875 2.71875 -6.707031 2.71875 -6.1875 C 2.71875 -5.96875 2.796875 -5.785156 2.953125 -5.640625 C 3.109375 -5.503906 3.382812 -5.394531 3.78125 -5.3125 L 4.828125 -5.078125 C 5.691406 -4.890625 6.320312 -4.59375 6.71875 -4.1875 C 7.113281 -3.78125 7.3125 -3.234375 7.3125 -2.546875 C 7.3125 -2.003906 7.175781 -1.523438 6.90625 -1.109375 C 6.644531 -0.703125 6.257812 -0.390625 5.75 -0.171875 C 5.25 0.046875 4.65625 0.15625 3.96875 0.15625 Z M 3.96875 0.15625 "/></g></g><g style="fill:#737373;fill-opacity:1;"><g transform="translate(60.807609, 45.969689)"><path style="stroke:none" d="M 2.96875 0 L 2.078125 0 L 2.078125 -2.25 L 0.09375 -5.734375 L 1.0625 -5.734375 L 2.5 -3.265625 L 2.59375 -3.265625 L 4 -5.734375 L 4.953125 -5.734375 L 2.96875 -2.25 Z M 2.96875 0 "/></g></g><g style="fill:#737373;fill-opacity:1;"><g transform="translate(65.292937, 45.969689)"><path style="stroke:none" d="M 2.5 0.078125 C 2.082031 0.078125 1.71875 -0.00390625 1.40625 -0.171875 C 1.09375 -0.347656 0.851562 -0.601562 0.6875 -0.9375 C 0.519531 -1.28125 0.4375 -1.6875 0.4375 -2.15625 C 0.4375 -2.632812 0.519531 -3.039062 0.6875 -3.375 C 0.851562 -3.71875 1.09375 -3.972656 1.40625 -4.140625 C 1.71875 -4.316406 2.082031 -4.40625 2.5 -4.40625 C 2.914062 -4.40625 3.28125 -4.316406 3.59375 -4.140625 C 3.90625 -3.972656 4.144531 -3.71875 4.3125 -3.375 C 4.476562 -3.039062 4.5625 -2.632812 4.5625 -2.15625 C 4.5625 -1.6875 4.476562 -1.28125 4.3125 -0.9375 C 4.144531 -0.601562 3.90625 -0.347656 3.59375 -0.171875 C 3.28125 -0.00390625 2.914062 0.078125 2.5 0.078125 Z M 2.5 -0.671875 C 3.28125 -0.671875 3.671875 -1.164062 3.671875 -2.15625 C 3.671875 -3.15625 3.28125 -3.65625 2.5 -3.65625 C 2.113281 -3.65625 1.820312 -3.53125 1.625 -3.28125 C 1.425781 -3.039062 1.328125 -2.664062 1.328125 -2.15625 C 1.328125 -1.164062 1.71875 -0.671875 2.5 -0.671875 Z M 2.5 -0.671875 "/></g><g transform="translate(70.292332, 45.969689)"><path style="stroke:none" d="M 2.0625 0.078125 C 1.570312 0.078125 1.207031 -0.0507812 0.96875 -0.3125 C 0.738281 -0.570312 0.625 -0.953125 0.625 -1.453125 L 0.625 -4.328125 L 1.484375 -4.328125 L 1.484375 -1.53125 C 1.484375 -1.226562 1.550781 -1.003906 1.6875 -0.859375 C 1.820312 -0.722656 2.023438 -0.65625 2.296875 -0.65625 C 2.640625 -0.65625 2.910156 -0.769531 3.109375 -1 C 3.304688 -1.226562 3.40625 -1.59375 3.40625 -2.09375 L 3.40625 -4.328125 L 4.265625 -4.328125 L 4.265625 0 L 3.453125 0 L 3.453125 -0.65625 L 3.359375 -0.671875 C 3.222656 -0.421875 3.050781 -0.234375 2.84375 -0.109375 C 2.632812 0.015625 2.375 0.078125 2.0625 0.078125 Z M 2.0625 0.078125 "/></g><g transform="translate(75.25641, 45.969689)"><path style="stroke:none" d="M 0.6875 0 L 0.6875 -4.328125 L 1.515625 -4.328125 L 1.515625 -3.671875 L 1.609375 -3.640625 C 1.710938 -3.890625 1.851562 -4.070312 2.03125 -4.1875 C 2.207031 -4.300781 2.425781 -4.359375 2.6875 -4.359375 C 2.957031 -4.359375 3.160156 -4.3125 3.296875 -4.21875 L 3.125 -3.484375 L 3.046875 -3.46875 C 2.972656 -3.5 2.894531 -3.519531 2.8125 -3.53125 C 2.738281 -3.550781 2.65625 -3.5625 2.5625 -3.5625 C 2.238281 -3.5625 1.988281 -3.441406 1.8125 -3.203125 C 1.632812 -2.972656 1.546875 -2.597656 1.546875 -2.078125 L 1.546875 0 Z M 0.6875 0 "/></g><g transform="translate(78.627273, 45.969689)"><path style="stroke:none" d=""/></g><g transform="translate(80.56189, 45.969689)"><path style="stroke:none" d="M 0.8125 0 L 0.8125 -5.734375 L 3 -5.734375 C 3.382812 -5.734375 3.707031 -5.671875 3.96875 -5.546875 C 4.238281 -5.421875 4.4375 -5.238281 4.5625 -5 C 4.695312 -4.769531 4.765625 -4.5 4.765625 -4.1875 C 4.765625 -3.832031 4.675781 -3.539062 4.5 -3.3125 C 4.332031 -3.09375 4.066406 -2.925781 3.703125 -2.8125 L 3.703125 -2.71875 C 3.878906 -2.644531 4.023438 -2.53125 4.140625 -2.375 C 4.253906 -2.21875 4.363281 -1.988281 4.46875 -1.6875 L 5.015625 0 L 4.09375 0 L 3.828125 -0.796875 C 3.691406 -1.210938 3.585938 -1.523438 3.515625 -1.734375 C 3.453125 -1.921875 3.378906 -2.066406 3.296875 -2.171875 C 3.222656 -2.285156 3.125 -2.363281 3 -2.40625 C 2.875 -2.457031 2.710938 -2.484375 2.515625 -2.484375 L 1.703125 -2.484375 L 1.703125 0 Z M 2.921875 -3.21875 C 3.546875 -3.21875 3.859375 -3.515625 3.859375 -4.109375 C 3.859375 -4.703125 3.546875 -5 2.921875 -5 L 1.703125 -5 L 1.703125 -3.21875 Z M 2.921875 -3.21875 "/></g></g><g style="fill:#737373;fill-opacity:1;"><g transform="translate(85.788887, 45.969689)"><path style="stroke:none" d="M 2.5 0.078125 C 2.082031 0.078125 1.71875 -0.00390625 1.40625 -0.171875 C 1.09375 -0.347656 0.851562 -0.601562 0.6875 -0.9375 C 0.519531 -1.28125 0.4375 -1.6875 0.4375 -2.15625 C 0.4375 -2.632812 0.519531 -3.039062 0.6875 -3.375 C 0.851562 -3.71875 1.09375 -3.972656 1.40625 -4.140625 C 1.71875 -4.316406 2.082031 -4.40625 2.5 -4.40625 C 2.914062 -4.40625 3.28125 -4.316406 3.59375 -4.140625 C 3.90625 -3.972656 4.144531 -3.71875 4.3125 -3.375 C 4.476562 -3.039062 4.5625 -2.632812 4.5625 -2.15625 C 4.5625 -1.6875 4.476562 -1.28125 4.3125 -0.9375 C 4.144531 -0.601562 3.90625 -0.347656 3.59375 -0.171875 C 3.28125 -0.00390625 2.914062 0.078125 2.5 0.078125 Z M 2.5 -0.671875 C 3.28125 -0.671875 3.671875 -1.164062 3.671875 -2.15625 C 3.671875 -3.15625 3.28125 -3.65625 2.5 -3.65625 C 2.113281 -3.65625 1.820312 -3.53125 1.625 -3.28125 C 1.425781 -3.039062 1.328125 -2.664062 1.328125 -2.15625 C 1.328125 -1.164062 1.71875 -0.671875 2.5 -0.671875 Z M 2.5 -0.671875 "/></g><g transform="translate(90.788282, 45.969689)"><path style="stroke:none" d="M 1.734375 0.078125 C 1.316406 0.078125 0.984375 -0.03125 0.734375 -0.25 C 0.492188 -0.476562 0.375 -0.800781 0.375 -1.21875 C 0.375 -1.476562 0.425781 -1.691406 0.53125 -1.859375 C 0.644531 -2.035156 0.816406 -2.179688 1.046875 -2.296875 C 1.273438 -2.410156 1.566406 -2.492188 1.921875 -2.546875 C 2.210938 -2.597656 2.429688 -2.648438 2.578125 -2.703125 C 2.722656 -2.765625 2.820312 -2.832031 2.875 -2.90625 C 2.925781 -2.976562 2.953125 -3.066406 2.953125 -3.171875 C 2.953125 -3.335938 2.894531 -3.460938 2.78125 -3.546875 C 2.664062 -3.640625 2.476562 -3.6875 2.21875 -3.6875 C 1.726562 -3.6875 1.304688 -3.484375 0.953125 -3.078125 L 0.875 -3.078125 L 0.5 -3.640625 C 0.695312 -3.878906 0.945312 -4.066406 1.25 -4.203125 C 1.550781 -4.335938 1.882812 -4.40625 2.25 -4.40625 C 2.789062 -4.40625 3.1875 -4.285156 3.4375 -4.046875 C 3.6875 -3.816406 3.8125 -3.492188 3.8125 -3.078125 L 3.8125 -0.984375 C 3.8125 -0.773438 3.90625 -0.671875 4.09375 -0.671875 C 4.15625 -0.671875 4.21875 -0.679688 4.28125 -0.703125 L 4.34375 -0.6875 L 4.40625 -0.09375 C 4.351562 -0.0507812 4.28125 -0.0195312 4.1875 0 C 4.101562 0.0195312 4.003906 0.03125 3.890625 0.03125 C 3.648438 0.03125 3.460938 -0.0195312 3.328125 -0.125 C 3.191406 -0.226562 3.101562 -0.382812 3.0625 -0.59375 L 2.96875 -0.59375 C 2.851562 -0.363281 2.691406 -0.191406 2.484375 -0.078125 C 2.285156 0.0234375 2.035156 0.078125 1.734375 0.078125 Z M 1.984375 -0.578125 C 2.179688 -0.578125 2.351562 -0.625 2.5 -0.71875 C 2.65625 -0.8125 2.773438 -0.941406 2.859375 -1.109375 C 2.941406 -1.285156 2.984375 -1.488281 2.984375 -1.71875 L 2.984375 -2.21875 L 2.90625 -2.234375 C 2.820312 -2.171875 2.71875 -2.117188 2.59375 -2.078125 C 2.476562 -2.046875 2.304688 -2.007812 2.078125 -1.96875 C 1.773438 -1.925781 1.5625 -1.847656 1.4375 -1.734375 C 1.3125 -1.617188 1.25 -1.457031 1.25 -1.25 C 1.25 -1.03125 1.3125 -0.863281 1.4375 -0.75 C 1.5625 -0.632812 1.742188 -0.578125 1.984375 -0.578125 Z M 1.984375 -0.578125 "/></g><g transform="translate(95.308928, 45.969689)"><path style="stroke:none" d="M 2.1875 0.078125 C 1.84375 0.078125 1.535156 -0.00390625 1.265625 -0.171875 C 1.003906 -0.335938 0.800781 -0.585938 0.65625 -0.921875 C 0.507812 -1.253906 0.4375 -1.664062 0.4375 -2.15625 C 0.4375 -2.65625 0.507812 -3.070312 0.65625 -3.40625 C 0.8125 -3.738281 1.023438 -3.988281 1.296875 -4.15625 C 1.578125 -4.320312 1.894531 -4.40625 2.25 -4.40625 C 2.53125 -4.40625 2.773438 -4.351562 2.984375 -4.25 C 3.203125 -4.15625 3.390625 -3.992188 3.546875 -3.765625 L 3.625 -3.796875 L 3.625 -6.0625 L 4.484375 -6.0625 L 4.484375 0 L 3.625 0 L 3.625 -0.59375 L 3.546875 -0.609375 C 3.410156 -0.398438 3.226562 -0.234375 3 -0.109375 C 2.78125 0.015625 2.507812 0.078125 2.1875 0.078125 Z M 2.46875 -0.671875 C 2.820312 -0.671875 3.101562 -0.789062 3.3125 -1.03125 C 3.519531 -1.28125 3.625 -1.65625 3.625 -2.15625 C 3.625 -2.664062 3.519531 -3.039062 3.3125 -3.28125 C 3.101562 -3.53125 2.820312 -3.65625 2.46875 -3.65625 C 1.707031 -3.65625 1.328125 -3.15625 1.328125 -2.15625 C 1.328125 -1.164062 1.707031 -0.671875 2.46875 -0.671875 Z M 2.46875 -0.671875 "/></g><g transform="translate(100.488834, 45.969689)"><path style="stroke:none" d="M 0.6875 0 L 0.6875 -4.328125 L 1.515625 -4.328125 L 1.515625 -3.71875 L 1.59375 -3.703125 C 1.738281 -3.941406 1.910156 -4.117188 2.109375 -4.234375 C 2.304688 -4.347656 2.550781 -4.40625 2.84375 -4.40625 C 3.175781 -4.40625 3.4375 -4.34375 3.625 -4.21875 C 3.820312 -4.09375 3.96875 -3.894531 4.0625 -3.625 L 4.140625 -3.625 C 4.285156 -3.882812 4.460938 -4.078125 4.671875 -4.203125 C 4.890625 -4.335938 5.15625 -4.40625 5.46875 -4.40625 C 5.925781 -4.40625 6.265625 -4.28125 6.484375 -4.03125 C 6.703125 -3.789062 6.8125 -3.421875 6.8125 -2.921875 L 6.8125 0 L 5.9375 0 L 5.9375 -2.859375 C 5.9375 -3.140625 5.878906 -3.34375 5.765625 -3.46875 C 5.648438 -3.601562 5.46875 -3.671875 5.21875 -3.671875 C 4.894531 -3.671875 4.640625 -3.5625 4.453125 -3.34375 C 4.273438 -3.125 4.1875 -2.765625 4.1875 -2.265625 L 4.1875 0 L 3.3125 0 L 3.3125 -2.859375 C 3.3125 -3.140625 3.253906 -3.34375 3.140625 -3.46875 C 3.023438 -3.601562 2.835938 -3.671875 2.578125 -3.671875 C 2.265625 -3.671875 2.015625 -3.5625 1.828125 -3.34375 C 1.640625 -3.132812 1.546875 -2.789062 1.546875 -2.3125 L 1.546875 0 Z M 0.6875 0 "/></g><g transform="translate(107.921216, 45.969689)"><path style="stroke:none" d="M 1.734375 0.078125 C 1.316406 0.078125 0.984375 -0.03125 0.734375 -0.25 C 0.492188 -0.476562 0.375 -0.800781 0.375 -1.21875 C 0.375 -1.476562 0.425781 -1.691406 0.53125 -1.859375 C 0.644531 -2.035156 0.816406 -2.179688 1.046875 -2.296875 C 1.273438 -2.410156 1.566406 -2.492188 1.921875 -2.546875 C 2.210938 -2.597656 2.429688 -2.648438 2.578125 -2.703125 C 2.722656 -2.765625 2.820312 -2.832031 2.875 -2.90625 C 2.925781 -2.976562 2.953125 -3.066406 2.953125 -3.171875 C 2.953125 -3.335938 2.894531 -3.460938 2.78125 -3.546875 C 2.664062 -3.640625 2.476562 -3.6875 2.21875 -3.6875 C 1.726562 -3.6875 1.304688 -3.484375 0.953125 -3.078125 L 0.875 -3.078125 L 0.5 -3.640625 C 0.695312 -3.878906 0.945312 -4.066406 1.25 -4.203125 C 1.550781 -4.335938 1.882812 -4.40625 2.25 -4.40625 C 2.789062 -4.40625 3.1875 -4.285156 3.4375 -4.046875 C 3.6875 -3.816406 3.8125 -3.492188 3.8125 -3.078125 L 3.8125 -0.984375 C 3.8125 -0.773438 3.90625 -0.671875 4.09375 -0.671875 C 4.15625 -0.671875 4.21875 -0.679688 4.28125 -0.703125 L 4.34375 -0.6875 L 4.40625 -0.09375 C 4.351562 -0.0507812 4.28125 -0.0195312 4.1875 0 C 4.101562 0.0195312 4.003906 0.03125 3.890625 0.03125 C 3.648438 0.03125 3.460938 -0.0195312 3.328125 -0.125 C 3.191406 -0.226562 3.101562 -0.382812 3.0625 -0.59375 L 2.96875 -0.59375 C 2.851562 -0.363281 2.691406 -0.191406 2.484375 -0.078125 C 2.285156 0.0234375 2.035156 0.078125 1.734375 0.078125 Z M 1.984375 -0.578125 C 2.179688 -0.578125 2.351562 -0.625 2.5 -0.71875 C 2.65625 -0.8125 2.773438 -0.941406 2.859375 -1.109375 C 2.941406 -1.285156 2.984375 -1.488281 2.984375 -1.71875 L 2.984375 -2.21875 L 2.90625 -2.234375 C 2.820312 -2.171875 2.71875 -2.117188 2.59375 -2.078125 C 2.476562 -2.046875 2.304688 -2.007812 2.078125 -1.96875 C 1.773438 -1.925781 1.5625 -1.847656 1.4375 -1.734375 C 1.3125 -1.617188 1.25 -1.457031 1.25 -1.25 C 1.25 -1.03125 1.3125 -0.863281 1.4375 -0.75 C 1.5625 -0.632812 1.742188 -0.578125 1.984375 -0.578125 Z M 1.984375 -0.578125 "/></g><g transform="translate(112.441862, 45.969689)"><path style="stroke:none" d="M 0.6875 1.75 L 0.6875 -4.328125 L 1.546875 -4.328125 L 1.546875 -3.71875 L 1.640625 -3.703125 C 1.785156 -3.941406 1.96875 -4.117188 2.1875 -4.234375 C 2.414062 -4.347656 2.675781 -4.40625 2.96875 -4.40625 C 3.332031 -4.40625 3.644531 -4.320312 3.90625 -4.15625 C 4.164062 -3.988281 4.367188 -3.738281 4.515625 -3.40625 C 4.660156 -3.070312 4.734375 -2.65625 4.734375 -2.15625 C 4.734375 -1.664062 4.65625 -1.253906 4.5 -0.921875 C 4.351562 -0.585938 4.140625 -0.335938 3.859375 -0.171875 C 3.585938 -0.00390625 3.273438 0.078125 2.921875 0.078125 C 2.640625 0.078125 2.390625 0.03125 2.171875 -0.0625 C 1.960938 -0.15625 1.785156 -0.3125 1.640625 -0.53125 L 1.546875 -0.515625 L 1.546875 1.75 Z M 2.6875 -0.671875 C 3.0625 -0.671875 3.347656 -0.789062 3.546875 -1.03125 C 3.742188 -1.269531 3.84375 -1.644531 3.84375 -2.15625 C 3.84375 -2.675781 3.742188 -3.054688 3.546875 -3.296875 C 3.347656 -3.535156 3.0625 -3.65625 2.6875 -3.65625 C 2.34375 -3.65625 2.066406 -3.53125 1.859375 -3.28125 C 1.648438 -3.039062 1.546875 -2.664062 1.546875 -2.15625 C 1.546875 -1.65625 1.648438 -1.28125 1.859375 -1.03125 C 2.066406 -0.789062 2.34375 -0.671875 2.6875 -0.671875 Z M 2.6875 -0.671875 "/></g><g transform="translate(117.617844, 45.969689)"><path style="stroke:none" d=""/></g><g transform="translate(119.552461, 45.969689)"><path style="stroke:none" d="M 2.953125 -0.859375 L 3.203125 -0.234375 C 3.085938 -0.128906 2.941406 -0.0507812 2.765625 0 C 2.597656 0.0507812 2.410156 0.078125 2.203125 0.078125 C 1.765625 0.078125 1.429688 -0.0351562 1.203125 -0.265625 C 0.984375 -0.492188 0.875 -0.835938 0.875 -1.296875 L 0.875 -3.640625 L 0.171875 -3.640625 L 0.171875 -4.328125 L 0.875 -4.328125 L 0.875 -5.203125 L 1.734375 -5.34375 L 1.734375 -4.328125 L 3.046875 -4.328125 L 3.046875 -3.640625 L 1.734375 -3.640625 L 1.734375 -1.359375 C 1.734375 -1.117188 1.78125 -0.945312 1.875 -0.84375 C 1.976562 -0.738281 2.125 -0.6875 2.3125 -0.6875 C 2.53125 -0.6875 2.71875 -0.742188 2.875 -0.859375 Z M 2.953125 -0.859375 "/></g></g><g style="fill:#737373;fill-opacity:1;"><g transform="translate(122.833068, 45.969689)"><path style="stroke:none" d="M 2.5 0.078125 C 2.082031 0.078125 1.71875 -0.00390625 1.40625 -0.171875 C 1.09375 -0.347656 0.851562 -0.601562 0.6875 -0.9375 C 0.519531 -1.28125 0.4375 -1.6875 0.4375 -2.15625 C 0.4375 -2.632812 0.519531 -3.039062 0.6875 -3.375 C 0.851562 -3.71875 1.09375 -3.972656 1.40625 -4.140625 C 1.71875 -4.316406 2.082031 -4.40625 2.5 -4.40625 C 2.914062 -4.40625 3.28125 -4.316406 3.59375 -4.140625 C 3.90625 -3.972656 4.144531 -3.71875 4.3125 -3.375 C 4.476562 -3.039062 4.5625 -2.632812 4.5625 -2.15625 C 4.5625 -1.6875 4.476562 -1.28125 4.3125 -0.9375 C 4.144531 -0.601562 3.90625 -0.347656 3.59375 -0.171875 C 3.28125 -0.00390625 2.914062 0.078125 2.5 0.078125 Z M 2.5 -0.671875 C 3.28125 -0.671875 3.671875 -1.164062 3.671875 -2.15625 C 3.671875 -3.15625 3.28125 -3.65625 2.5 -3.65625 C 2.113281 -3.65625 1.820312 -3.53125 1.625 -3.28125 C 1.425781 -3.039062 1.328125 -2.664062 1.328125 -2.15625 C 1.328125 -1.164062 1.71875 -0.671875 2.5 -0.671875 Z M 2.5 -0.671875 "/></g><g transform="translate(127.832463, 45.969689)"><path style="stroke:none" d=""/></g><g transform="translate(129.76708, 45.969689)"><path style="stroke:none" d="M 2.53125 0.078125 C 2.144531 0.078125 1.800781 0.03125 1.5 -0.0625 C 1.207031 -0.164062 0.960938 -0.296875 0.765625 -0.453125 C 0.566406 -0.609375 0.414062 -0.78125 0.3125 -0.96875 L 0.8125 -1.578125 L 0.90625 -1.578125 C 1.082031 -1.304688 1.300781 -1.09375 1.5625 -0.9375 C 1.832031 -0.789062 2.15625 -0.71875 2.53125 -0.71875 C 2.894531 -0.71875 3.164062 -0.789062 3.34375 -0.9375 C 3.53125 -1.09375 3.625 -1.304688 3.625 -1.578125 C 3.625 -1.742188 3.59375 -1.878906 3.53125 -1.984375 C 3.46875 -2.097656 3.367188 -2.195312 3.234375 -2.28125 C 3.097656 -2.363281 2.910156 -2.429688 2.671875 -2.484375 L 1.96875 -2.65625 C 1.46875 -2.769531 1.09375 -2.960938 0.84375 -3.234375 C 0.601562 -3.503906 0.484375 -3.847656 0.484375 -4.265625 C 0.484375 -4.566406 0.554688 -4.832031 0.703125 -5.0625 C 0.859375 -5.300781 1.082031 -5.484375 1.375 -5.609375 C 1.675781 -5.742188 2.035156 -5.8125 2.453125 -5.8125 C 2.890625 -5.8125 3.257812 -5.753906 3.5625 -5.640625 C 3.875 -5.523438 4.125 -5.34375 4.3125 -5.09375 L 3.875 -4.484375 L 3.78125 -4.484375 C 3.613281 -4.671875 3.421875 -4.8125 3.203125 -4.90625 C 2.984375 -5 2.734375 -5.046875 2.453125 -5.046875 C 2.097656 -5.046875 1.828125 -4.976562 1.640625 -4.84375 C 1.460938 -4.707031 1.375 -4.523438 1.375 -4.296875 C 1.375 -4.078125 1.4375 -3.898438 1.5625 -3.765625 C 1.695312 -3.640625 1.921875 -3.539062 2.234375 -3.46875 L 2.953125 -3.3125 C 3.515625 -3.1875 3.921875 -2.984375 4.171875 -2.703125 C 4.421875 -2.429688 4.546875 -2.078125 4.546875 -1.640625 C 4.546875 -1.296875 4.46875 -0.992188 4.3125 -0.734375 C 4.164062 -0.472656 3.941406 -0.269531 3.640625 -0.125 C 3.335938 0.0078125 2.96875 0.078125 2.53125 0.078125 Z M 2.53125 0.078125 "/></g><g transform="translate(134.691916, 45.969689)"><path style="stroke:none" d="M 0.6875 0 L 0.6875 -4.328125 L 1.515625 -4.328125 L 1.515625 -3.71875 L 1.59375 -3.703125 C 1.738281 -3.941406 1.910156 -4.117188 2.109375 -4.234375 C 2.304688 -4.347656 2.550781 -4.40625 2.84375 -4.40625 C 3.175781 -4.40625 3.4375 -4.34375 3.625 -4.21875 C 3.820312 -4.09375 3.96875 -3.894531 4.0625 -3.625 L 4.140625 -3.625 C 4.285156 -3.882812 4.460938 -4.078125 4.671875 -4.203125 C 4.890625 -4.335938 5.15625 -4.40625 5.46875 -4.40625 C 5.925781 -4.40625 6.265625 -4.28125 6.484375 -4.03125 C 6.703125 -3.789062 6.8125 -3.421875 6.8125 -2.921875 L 6.8125 0 L 5.9375 0 L 5.9375 -2.859375 C 5.9375 -3.140625 5.878906 -3.34375 5.765625 -3.46875 C 5.648438 -3.601562 5.46875 -3.671875 5.21875 -3.671875 C 4.894531 -3.671875 4.640625 -3.5625 4.453125 -3.34375 C 4.273438 -3.125 4.1875 -2.765625 4.1875 -2.265625 L 4.1875 0 L 3.3125 0 L 3.3125 -2.859375 C 3.3125 -3.140625 3.253906 -3.34375 3.140625 -3.46875 C 3.023438 -3.601562 2.835938 -3.671875 2.578125 -3.671875 C 2.265625 -3.671875 2.015625 -3.5625 1.828125 -3.34375 C 1.640625 -3.132812 1.546875 -2.789062 1.546875 -2.3125 L 1.546875 0 Z M 0.6875 0 "/></g><g transform="translate(142.124297, 45.969689)"><path style="stroke:none" d="M 1.734375 0.078125 C 1.316406 0.078125 0.984375 -0.03125 0.734375 -0.25 C 0.492188 -0.476562 0.375 -0.800781 0.375 -1.21875 C 0.375 -1.476562 0.425781 -1.691406 0.53125 -1.859375 C 0.644531 -2.035156 0.816406 -2.179688 1.046875 -2.296875 C 1.273438 -2.410156 1.566406 -2.492188 1.921875 -2.546875 C 2.210938 -2.597656 2.429688 -2.648438 2.578125 -2.703125 C 2.722656 -2.765625 2.820312 -2.832031 2.875 -2.90625 C 2.925781 -2.976562 2.953125 -3.066406 2.953125 -3.171875 C 2.953125 -3.335938 2.894531 -3.460938 2.78125 -3.546875 C 2.664062 -3.640625 2.476562 -3.6875 2.21875 -3.6875 C 1.726562 -3.6875 1.304688 -3.484375 0.953125 -3.078125 L 0.875 -3.078125 L 0.5 -3.640625 C 0.695312 -3.878906 0.945312 -4.066406 1.25 -4.203125 C 1.550781 -4.335938 1.882812 -4.40625 2.25 -4.40625 C 2.789062 -4.40625 3.1875 -4.285156 3.4375 -4.046875 C 3.6875 -3.816406 3.8125 -3.492188 3.8125 -3.078125 L 3.8125 -0.984375 C 3.8125 -0.773438 3.90625 -0.671875 4.09375 -0.671875 C 4.15625 -0.671875 4.21875 -0.679688 4.28125 -0.703125 L 4.34375 -0.6875 L 4.40625 -0.09375 C 4.351562 -0.0507812 4.28125 -0.0195312 4.1875 0 C 4.101562 0.0195312 4.003906 0.03125 3.890625 0.03125 C 3.648438 0.03125 3.460938 -0.0195312 3.328125 -0.125 C 3.191406 -0.226562 3.101562 -0.382812 3.0625 -0.59375 L 2.96875 -0.59375 C 2.851562 -0.363281 2.691406 -0.191406 2.484375 -0.078125 C 2.285156 0.0234375 2.035156 0.078125 1.734375 0.078125 Z M 1.984375 -0.578125 C 2.179688 -0.578125 2.351562 -0.625 2.5 -0.71875 C 2.65625 -0.8125 2.773438 -0.941406 2.859375 -1.109375 C 2.941406 -1.285156 2.984375 -1.488281 2.984375 -1.71875 L 2.984375 -2.21875 L 2.90625 -2.234375 C 2.820312 -2.171875 2.71875 -2.117188 2.59375 -2.078125 C 2.476562 -2.046875 2.304688 -2.007812 2.078125 -1.96875 C 1.773438 -1.925781 1.5625 -1.847656 1.4375 -1.734375 C 1.3125 -1.617188 1.25 -1.457031 1.25 -1.25 C 1.25 -1.03125 1.3125 -0.863281 1.4375 -0.75 C 1.5625 -0.632812 1.742188 -0.578125 1.984375 -0.578125 Z M 1.984375 -0.578125 "/></g><g transform="translate(146.644943, 45.969689)"><path style="stroke:none" d="M 0.6875 0 L 0.6875 -4.328125 L 1.515625 -4.328125 L 1.515625 -3.671875 L 1.609375 -3.640625 C 1.710938 -3.890625 1.851562 -4.070312 2.03125 -4.1875 C 2.207031 -4.300781 2.425781 -4.359375 2.6875 -4.359375 C 2.957031 -4.359375 3.160156 -4.3125 3.296875 -4.21875 L 3.125 -3.484375 L 3.046875 -3.46875 C 2.972656 -3.5 2.894531 -3.519531 2.8125 -3.53125 C 2.738281 -3.550781 2.65625 -3.5625 2.5625 -3.5625 C 2.238281 -3.5625 1.988281 -3.441406 1.8125 -3.203125 C 1.632812 -2.972656 1.546875 -2.597656 1.546875 -2.078125 L 1.546875 0 Z M 0.6875 0 "/></g></g><g style="fill:#737373;fill-opacity:1;"><g transform="translate(150.043275, 45.969689)"><path style="stroke:none" d="M 2.953125 -0.859375 L 3.203125 -0.234375 C 3.085938 -0.128906 2.941406 -0.0507812 2.765625 0 C 2.597656 0.0507812 2.410156 0.078125 2.203125 0.078125 C 1.765625 0.078125 1.429688 -0.0351562 1.203125 -0.265625 C 0.984375 -0.492188 0.875 -0.835938 0.875 -1.296875 L 0.875 -3.640625 L 0.171875 -3.640625 L 0.171875 -4.328125 L 0.875 -4.328125 L 0.875 -5.203125 L 1.734375 -5.34375 L 1.734375 -4.328125 L 3.046875 -4.328125 L 3.046875 -3.640625 L 1.734375 -3.640625 L 1.734375 -1.359375 C 1.734375 -1.117188 1.78125 -0.945312 1.875 -0.84375 C 1.976562 -0.738281 2.125 -0.6875 2.3125 -0.6875 C 2.53125 -0.6875 2.71875 -0.742188 2.875 -0.859375 Z M 2.953125 -0.859375 "/></g></g><g style="fill:#737373;fill-opacity:1;"><g transform="translate(153.323883, 45.969689)"><path style="stroke:none" d="M 4.203125 -1.96875 L 1.328125 -1.96875 C 1.367188 -1.101562 1.769531 -0.671875 2.53125 -0.671875 C 2.8125 -0.671875 3.035156 -0.71875 3.203125 -0.8125 C 3.378906 -0.914062 3.515625 -1.070312 3.609375 -1.28125 L 3.6875 -1.28125 L 4.265625 -0.9375 C 4.128906 -0.625 3.921875 -0.375 3.640625 -0.1875 C 3.359375 -0.0078125 2.988281 0.078125 2.53125 0.078125 C 2.09375 0.078125 1.71875 -0.00390625 1.40625 -0.171875 C 1.09375 -0.335938 0.851562 -0.585938 0.6875 -0.921875 C 0.519531 -1.253906 0.4375 -1.664062 0.4375 -2.15625 C 0.4375 -2.644531 0.523438 -3.054688 0.703125 -3.390625 C 0.878906 -3.734375 1.117188 -3.988281 1.421875 -4.15625 C 1.734375 -4.320312 2.082031 -4.40625 2.46875 -4.40625 C 3.050781 -4.40625 3.5 -4.242188 3.8125 -3.921875 C 4.132812 -3.609375 4.296875 -3.140625 4.296875 -2.515625 C 4.296875 -2.285156 4.289062 -2.117188 4.28125 -2.015625 Z M 3.46875 -2.578125 C 3.457031 -2.972656 3.363281 -3.257812 3.1875 -3.4375 C 3.019531 -3.625 2.78125 -3.71875 2.46875 -3.71875 C 2.144531 -3.71875 1.890625 -3.625 1.703125 -3.4375 C 1.515625 -3.257812 1.394531 -2.972656 1.34375 -2.578125 Z M 3.46875 -2.578125 "/></g><g transform="translate(157.985799, 45.969689)"><path style="stroke:none" d="M 0.6875 0 L 0.6875 -4.328125 L 1.515625 -4.328125 L 1.515625 -3.671875 L 1.609375 -3.640625 C 1.710938 -3.890625 1.851562 -4.070312 2.03125 -4.1875 C 2.207031 -4.300781 2.425781 -4.359375 2.6875 -4.359375 C 2.957031 -4.359375 3.160156 -4.3125 3.296875 -4.21875 L 3.125 -3.484375 L 3.046875 -3.46875 C 2.972656 -3.5 2.894531 -3.519531 2.8125 -3.53125 C 2.738281 -3.550781 2.65625 -3.5625 2.5625 -3.5625 C 2.238281 -3.5625 1.988281 -3.441406 1.8125 -3.203125 C 1.632812 -2.972656 1.546875 -2.597656 1.546875 -2.078125 L 1.546875 0 Z M 0.6875 0 "/></g><g transform="translate(161.356663, 45.969689)"><path style="stroke:none" d=""/></g><g transform="translate(163.291279, 45.969689)"><path style="stroke:none" d="M 1.703125 0 L 0.8125 0 L 0.8125 -5.734375 L 1.703125 -5.734375 Z M 1.703125 0 "/></g><g transform="translate(165.814522, 45.969689)"><path style="stroke:none" d="M 4.53125 -5.734375 L 4.53125 -4.96875 L 2.8125 -4.96875 L 2.8125 0 L 1.90625 0 L 1.90625 -4.96875 L 0.1875 -4.96875 L 0.1875 -5.734375 Z M 4.53125 -5.734375 "/></g><g transform="translate(170.5353, 45.969689)"><path style="stroke:none" d=""/></g><g transform="translate(172.469917, 45.969689)"><path style="stroke:none" d="M 2.765625 -5.734375 C 3.671875 -5.734375 4.367188 -5.492188 4.859375 -5.015625 C 5.347656 -4.535156 5.59375 -3.816406 5.59375 -2.859375 C 5.59375 -1.910156 5.347656 -1.195312 4.859375 -0.71875 C 4.367188 -0.238281 3.671875 0 2.765625 0 L 0.8125 0 L 0.8125 -5.734375 Z M 2.703125 -0.765625 C 3.140625 -0.765625 3.5 -0.832031 3.78125 -0.96875 C 4.070312 -1.113281 4.289062 -1.335938 4.4375 -1.640625 C 4.582031 -1.953125 4.65625 -2.359375 4.65625 -2.859375 C 4.65625 -3.367188 4.582031 -3.773438 4.4375 -4.078125 C 4.289062 -4.390625 4.070312 -4.613281 3.78125 -4.75 C 3.5 -4.894531 3.140625 -4.96875 2.703125 -4.96875 L 1.703125 -4.96875 L 1.703125 -0.765625 Z M 2.703125 -0.765625 "/></g><g transform="translate(178.587701, 45.969689)"><path style="stroke:none" d="M 4.203125 -1.96875 L 1.328125 -1.96875 C 1.367188 -1.101562 1.769531 -0.671875 2.53125 -0.671875 C 2.8125 -0.671875 3.035156 -0.71875 3.203125 -0.8125 C 3.378906 -0.914062 3.515625 -1.070312 3.609375 -1.28125 L 3.6875 -1.28125 L 4.265625 -0.9375 C 4.128906 -0.625 3.921875 -0.375 3.640625 -0.1875 C 3.359375 -0.0078125 2.988281 0.078125 2.53125 0.078125 C 2.09375 0.078125 1.71875 -0.00390625 1.40625 -0.171875 C 1.09375 -0.335938 0.851562 -0.585938 0.6875 -0.921875 C 0.519531 -1.253906 0.4375 -1.664062 0.4375 -2.15625 C 0.4375 -2.644531 0.523438 -3.054688 0.703125 -3.390625 C 0.878906 -3.734375 1.117188 -3.988281 1.421875 -4.15625 C 1.734375 -4.320312 2.082031 -4.40625 2.46875 -4.40625 C 3.050781 -4.40625 3.5 -4.242188 3.8125 -3.921875 C 4.132812 -3.609375 4.296875 -3.140625 4.296875 -2.515625 C 4.296875 -2.285156 4.289062 -2.117188 4.28125 -2.015625 Z M 3.46875 -2.578125 C 3.457031 -2.972656 3.363281 -3.257812 3.1875 -3.4375 C 3.019531 -3.625 2.78125 -3.71875 2.46875 -3.71875 C 2.144531 -3.71875 1.890625 -3.625 1.703125 -3.4375 C 1.515625 -3.257812 1.394531 -2.972656 1.34375 -2.578125 Z M 3.46875 -2.578125 "/></g><g transform="translate(183.249617, 45.969689)"><path style="stroke:none" d="M 2.5 0.078125 C 2.101562 0.078125 1.75 -0.00390625 1.4375 -0.171875 C 1.125 -0.347656 0.878906 -0.601562 0.703125 -0.9375 C 0.523438 -1.28125 0.4375 -1.6875 0.4375 -2.15625 C 0.4375 -2.632812 0.523438 -3.039062 0.703125 -3.375 C 0.878906 -3.71875 1.117188 -3.972656 1.421875 -4.140625 C 1.734375 -4.316406 2.09375 -4.40625 2.5 -4.40625 C 2.96875 -4.40625 3.335938 -4.316406 3.609375 -4.140625 C 3.890625 -3.972656 4.085938 -3.738281 4.203125 -3.4375 L 3.625 -3.015625 L 3.53125 -3.015625 C 3.4375 -3.234375 3.304688 -3.394531 3.140625 -3.5 C 2.972656 -3.601562 2.757812 -3.65625 2.5 -3.65625 C 2.132812 -3.65625 1.847656 -3.53125 1.640625 -3.28125 C 1.429688 -3.03125 1.328125 -2.65625 1.328125 -2.15625 C 1.328125 -1.664062 1.429688 -1.296875 1.640625 -1.046875 C 1.847656 -0.796875 2.132812 -0.671875 2.5 -0.671875 C 3.039062 -0.671875 3.398438 -0.929688 3.578125 -1.453125 L 3.671875 -1.46875 L 4.265625 -1.125 C 4.148438 -0.757812 3.945312 -0.46875 3.65625 -0.25 C 3.363281 -0.03125 2.976562 0.078125 2.5 0.078125 Z M 2.5 0.078125 "/></g><g transform="translate(187.7114, 45.969689)"><path style="stroke:none" d="M 1.125 -5 C 0.957031 -5 0.820312 -5.050781 0.71875 -5.15625 C 0.613281 -5.257812 0.5625 -5.390625 0.5625 -5.546875 C 0.5625 -5.703125 0.613281 -5.832031 0.71875 -5.9375 C 0.820312 -6.039062 0.957031 -6.09375 1.125 -6.09375 C 1.289062 -6.09375 1.425781 -6.039062 1.53125 -5.9375 C 1.632812 -5.832031 1.6875 -5.703125 1.6875 -5.546875 C 1.6875 -5.390625 1.632812 -5.257812 1.53125 -5.15625 C 1.425781 -5.050781 1.289062 -5 1.125 -5 Z M 0.6875 0 L 0.6875 -4.328125 L 1.546875 -4.328125 L 1.546875 0 Z M 0.6875 0 "/></g><g transform="translate(189.952102, 45.969689)"><path style="stroke:none" d="M 2 0.078125 C 1.71875 0.078125 1.457031 0.046875 1.21875 -0.015625 C 0.976562 -0.0859375 0.773438 -0.1875 0.609375 -0.3125 C 0.441406 -0.4375 0.320312 -0.578125 0.25 -0.734375 L 0.734375 -1.265625 L 0.8125 -1.265625 C 1.101562 -0.847656 1.5 -0.640625 2 -0.640625 C 2.269531 -0.640625 2.472656 -0.6875 2.609375 -0.78125 C 2.742188 -0.882812 2.8125 -1.03125 2.8125 -1.21875 C 2.8125 -1.351562 2.765625 -1.46875 2.671875 -1.5625 C 2.585938 -1.65625 2.445312 -1.726562 2.25 -1.78125 L 1.59375 -1.9375 C 1.1875 -2.03125 0.890625 -2.179688 0.703125 -2.390625 C 0.515625 -2.597656 0.421875 -2.859375 0.421875 -3.171875 C 0.421875 -3.421875 0.484375 -3.640625 0.609375 -3.828125 C 0.734375 -4.015625 0.914062 -4.15625 1.15625 -4.25 C 1.394531 -4.351562 1.675781 -4.40625 2 -4.40625 C 2.394531 -4.40625 2.710938 -4.347656 2.953125 -4.234375 C 3.191406 -4.128906 3.378906 -3.976562 3.515625 -3.78125 L 3.046875 -3.296875 L 2.96875 -3.296875 C 2.84375 -3.441406 2.703125 -3.546875 2.546875 -3.609375 C 2.390625 -3.679688 2.207031 -3.71875 2 -3.71875 C 1.75 -3.71875 1.554688 -3.671875 1.421875 -3.578125 C 1.296875 -3.492188 1.234375 -3.375 1.234375 -3.21875 C 1.234375 -3.070312 1.28125 -2.953125 1.375 -2.859375 C 1.46875 -2.773438 1.628906 -2.707031 1.859375 -2.65625 L 2.5 -2.5 C 2.90625 -2.414062 3.195312 -2.269531 3.375 -2.0625 C 3.5625 -1.851562 3.65625 -1.582031 3.65625 -1.25 C 3.65625 -0.988281 3.59375 -0.753906 3.46875 -0.546875 C 3.34375 -0.347656 3.15625 -0.191406 2.90625 -0.078125 C 2.65625 0.0234375 2.351562 0.078125 2 0.078125 Z M 2 0.078125 "/></g><g transform="translate(193.950833, 45.969689)"><path style="stroke:none" d="M 1.125 -5 C 0.957031 -5 0.820312 -5.050781 0.71875 -5.15625 C 0.613281 -5.257812 0.5625 -5.390625 0.5625 -5.546875 C 0.5625 -5.703125 0.613281 -5.832031 0.71875 -5.9375 C 0.820312 -6.039062 0.957031 -6.09375 1.125 -6.09375 C 1.289062 -6.09375 1.425781 -6.039062 1.53125 -5.9375 C 1.632812 -5.832031 1.6875 -5.703125 1.6875 -5.546875 C 1.6875 -5.390625 1.632812 -5.257812 1.53125 -5.15625 C 1.425781 -5.050781 1.289062 -5 1.125 -5 Z M 0.6875 0 L 0.6875 -4.328125 L 1.546875 -4.328125 L 1.546875 0 Z M 0.6875 0 "/></g><g transform="translate(196.191535, 45.969689)"><path style="stroke:none" d="M 2.5 0.078125 C 2.082031 0.078125 1.71875 -0.00390625 1.40625 -0.171875 C 1.09375 -0.347656 0.851562 -0.601562 0.6875 -0.9375 C 0.519531 -1.28125 0.4375 -1.6875 0.4375 -2.15625 C 0.4375 -2.632812 0.519531 -3.039062 0.6875 -3.375 C 0.851562 -3.71875 1.09375 -3.972656 1.40625 -4.140625 C 1.71875 -4.316406 2.082031 -4.40625 2.5 -4.40625 C 2.914062 -4.40625 3.28125 -4.316406 3.59375 -4.140625 C 3.90625 -3.972656 4.144531 -3.71875 4.3125 -3.375 C 4.476562 -3.039062 4.5625 -2.632812 4.5625 -2.15625 C 4.5625 -1.6875 4.476562 -1.28125 4.3125 -0.9375 C 4.144531 -0.601562 3.90625 -0.347656 3.59375 -0.171875 C 3.28125 -0.00390625 2.914062 0.078125 2.5 0.078125 Z M 2.5 -0.671875 C 3.28125 -0.671875 3.671875 -1.164062 3.671875 -2.15625 C 3.671875 -3.15625 3.28125 -3.65625 2.5 -3.65625 C 2.113281 -3.65625 1.820312 -3.53125 1.625 -3.28125 C 1.425781 -3.039062 1.328125 -2.664062 1.328125 -2.15625 C 1.328125 -1.164062 1.71875 -0.671875 2.5 -0.671875 Z M 2.5 -0.671875 "/></g><g transform="translate(201.19093, 45.969689)"><path style="stroke:none" d="M 0.6875 0 L 0.6875 -4.328125 L 1.515625 -4.328125 L 1.515625 -3.671875 L 1.59375 -3.65625 C 1.726562 -3.90625 1.90625 -4.09375 2.125 -4.21875 C 2.351562 -4.34375 2.625 -4.40625 2.9375 -4.40625 C 3.445312 -4.40625 3.816406 -4.269531 4.046875 -4 C 4.285156 -3.738281 4.40625 -3.335938 4.40625 -2.796875 L 4.40625 0 L 3.546875 0 L 3.546875 -2.71875 C 3.546875 -3.0625 3.476562 -3.304688 3.34375 -3.453125 C 3.207031 -3.597656 2.992188 -3.671875 2.703125 -3.671875 C 2.347656 -3.671875 2.066406 -3.554688 1.859375 -3.328125 C 1.648438 -3.097656 1.546875 -2.734375 1.546875 -2.234375 L 1.546875 0 Z M 0.6875 0 "/></g><g transform="translate(206.217794, 45.969689)"><path style="stroke:none" d="M 2 0.078125 C 1.71875 0.078125 1.457031 0.046875 1.21875 -0.015625 C 0.976562 -0.0859375 0.773438 -0.1875 0.609375 -0.3125 C 0.441406 -0.4375 0.320312 -0.578125 0.25 -0.734375 L 0.734375 -1.265625 L 0.8125 -1.265625 C 1.101562 -0.847656 1.5 -0.640625 2 -0.640625 C 2.269531 -0.640625 2.472656 -0.6875 2.609375 -0.78125 C 2.742188 -0.882812 2.8125 -1.03125 2.8125 -1.21875 C 2.8125 -1.351562 2.765625 -1.46875 2.671875 -1.5625 C 2.585938 -1.65625 2.445312 -1.726562 2.25 -1.78125 L 1.59375 -1.9375 C 1.1875 -2.03125 0.890625 -2.179688 0.703125 -2.390625 C 0.515625 -2.597656 0.421875 -2.859375 0.421875 -3.171875 C 0.421875 -3.421875 0.484375 -3.640625 0.609375 -3.828125 C 0.734375 -4.015625 0.914062 -4.15625 1.15625 -4.25 C 1.394531 -4.351562 1.675781 -4.40625 2 -4.40625 C 2.394531 -4.40625 2.710938 -4.347656 2.953125 -4.234375 C 3.191406 -4.128906 3.378906 -3.976562 3.515625 -3.78125 L 3.046875 -3.296875 L 2.96875 -3.296875 C 2.84375 -3.441406 2.703125 -3.546875 2.546875 -3.609375 C 2.390625 -3.679688 2.207031 -3.71875 2 -3.71875 C 1.75 -3.71875 1.554688 -3.671875 1.421875 -3.578125 C 1.296875 -3.492188 1.234375 -3.375 1.234375 -3.21875 C 1.234375 -3.070312 1.28125 -2.953125 1.375 -2.859375 C 1.46875 -2.773438 1.628906 -2.707031 1.859375 -2.65625 L 2.5 -2.5 C 2.90625 -2.414062 3.195312 -2.269531 3.375 -2.0625 C 3.5625 -1.851562 3.65625 -1.582031 3.65625 -1.25 C 3.65625 -0.988281 3.59375 -0.753906 3.46875 -0.546875 C 3.34375 -0.347656 3.15625 -0.191406 2.90625 -0.078125 C 2.65625 0.0234375 2.351562 0.078125 2 0.078125 Z M 2 0.078125 "/></g></g><g style="fill:#737373;fill-opacity:1;"><g transform="translate(210.165511, 45.969689)"><path style="stroke:none" d="M 1.078125 0.046875 C 0.898438 0.046875 0.757812 -0.00390625 0.65625 -0.109375 C 0.550781 -0.222656 0.5 -0.359375 0.5 -0.515625 C 0.5 -0.679688 0.550781 -0.816406 0.65625 -0.921875 C 0.757812 -1.023438 0.898438 -1.078125 1.078125 -1.078125 C 1.265625 -1.078125 1.410156 -1.023438 1.515625 -0.921875 C 1.617188 -0.816406 1.671875 -0.6875 1.671875 -0.53125 C 1.671875 -0.363281 1.617188 -0.222656 1.515625 -0.109375 C 1.410156 -0.00390625 1.265625 0.046875 1.078125 0.046875 Z M 1.078125 0.046875 "/></g></g></g></svg>