<svg xmlns="http://www.w3.org/2000/svg" xmlns:xlink="http://www.w3.org/1999/xlink" width="192" zoomAndPan="magnify" viewBox="0 0 144 143.999998" height="192" preserveAspectRatio="xMidYMid meet" version="1.2"><defs><clipPath id="77cd4f5898"><path d="M 0 0 L 144 0 L 144 143.25 L 0 143.25 Z M 0 0 "/></clipPath></defs><g id="ff468b705d"><path style=" stroke:none;fill-rule:nonzero;fill:#2563eb;fill-opacity:1;" d="M 131.488281 71.625 C 131.488281 73.578125 131.390625 75.53125 131.199219 77.476562 C 131.007812 79.421875 130.722656 81.351562 130.339844 83.269531 C 129.957031 85.1875 129.480469 87.082031 128.914062 88.953125 C 128.347656 90.820312 127.6875 92.660156 126.9375 94.464844 C 126.1875 96.273438 125.351562 98.039062 124.429688 99.761719 C 123.507812 101.484375 122.503906 103.160156 121.414062 104.785156 C 120.328125 106.410156 119.164062 107.980469 117.921875 109.492188 C 116.679688 111 115.367188 112.449219 113.984375 113.832031 C 112.597656 115.210938 111.148438 116.523438 109.636719 117.765625 C 108.125 119.003906 106.554688 120.167969 104.925781 121.253906 C 103.300781 122.339844 101.621094 123.34375 99.894531 124.265625 C 98.167969 125.1875 96.402344 126.019531 94.59375 126.769531 C 92.785156 127.515625 90.945312 128.175781 89.070312 128.742188 C 87.199219 129.308594 85.300781 129.785156 83.382812 130.164062 C 81.460938 130.546875 79.527344 130.832031 77.582031 131.023438 C 75.632812 131.214844 73.679688 131.3125 71.722656 131.3125 C 69.765625 131.3125 67.8125 131.214844 65.863281 131.023438 C 63.917969 130.832031 61.984375 130.546875 60.0625 130.164062 C 58.144531 129.785156 56.246094 129.308594 54.375 128.742188 C 52.5 128.175781 50.660156 127.515625 48.851562 126.769531 C 47.042969 126.019531 45.277344 125.1875 43.550781 124.265625 C 41.824219 123.34375 40.148438 122.339844 38.519531 121.253906 C 36.890625 120.167969 35.320312 119.003906 33.808594 117.765625 C 32.296875 116.523438 30.847656 115.210938 29.464844 113.832031 C 28.078125 112.449219 26.765625 111 25.523438 109.492188 C 24.28125 107.980469 23.117188 106.410156 22.03125 104.785156 C 20.945312 103.160156 19.9375 101.484375 19.015625 99.761719 C 18.09375 98.039062 17.257812 96.273438 16.507812 94.464844 C 15.757812 92.660156 15.101562 90.820312 14.53125 88.953125 C 13.964844 87.082031 13.488281 85.1875 13.105469 83.269531 C 12.726562 81.351562 12.4375 79.421875 12.246094 77.476562 C 12.054688 75.53125 11.957031 73.578125 11.957031 71.625 C 11.957031 69.671875 12.054688 67.71875 12.246094 65.773438 C 12.4375 63.828125 12.726562 61.898438 13.105469 59.980469 C 13.488281 58.0625 13.964844 56.167969 14.53125 54.296875 C 15.101562 52.429688 15.757812 50.589844 16.507812 48.785156 C 17.257812 46.976562 18.09375 45.210938 19.015625 43.488281 C 19.9375 41.765625 20.945312 40.089844 22.03125 38.464844 C 23.117188 36.839844 24.28125 35.269531 25.523438 33.757812 C 26.765625 32.25 28.078125 30.800781 29.464844 29.417969 C 30.847656 28.039062 32.296875 26.726562 33.808594 25.484375 C 35.320312 24.246094 36.890625 23.082031 38.519531 21.996094 C 40.148438 20.910156 41.824219 19.90625 43.550781 18.984375 C 45.277344 18.0625 47.042969 17.230469 48.851562 16.480469 C 50.660156 15.734375 52.5 15.074219 54.375 14.507812 C 56.246094 13.941406 58.144531 13.464844 60.0625 13.085938 C 61.984375 12.703125 63.917969 12.417969 65.863281 12.226562 C 67.8125 12.035156 69.765625 11.9375 71.722656 11.9375 C 73.679688 11.9375 75.632812 12.035156 77.582031 12.226562 C 79.527344 12.417969 81.460938 12.703125 83.382812 13.085938 C 85.300781 13.464844 87.199219 13.941406 89.070312 14.507812 C 90.945312 15.074219 92.785156 15.734375 94.59375 16.480469 C 96.402344 17.230469 98.167969 18.0625 99.894531 18.984375 C 101.621094 19.90625 103.300781 20.910156 104.925781 21.996094 C 106.554688 23.082031 108.125 24.246094 109.636719 25.484375 C 111.148438 26.726562 112.597656 28.039062 113.984375 29.417969 C 115.367188 30.800781 116.679688 32.25 117.921875 33.757812 C 119.164062 35.269531 120.328125 36.839844 121.414062 38.464844 C 122.503906 40.089844 123.507812 41.765625 124.429688 43.488281 C 125.351562 45.210938 126.1875 46.976562 126.9375 48.785156 C 127.6875 50.589844 128.347656 52.429688 128.914062 54.296875 C 129.480469 56.167969 129.957031 58.0625 130.339844 59.980469 C 130.722656 61.898438 131.007812 63.828125 131.199219 65.773438 C 131.390625 67.71875 131.488281 69.671875 131.488281 71.625 Z M 131.488281 71.625 "/><g clip-rule="nonzero" clip-path="url(#77cd4f5898)"><path style="fill:none;stroke-width:1;stroke-linecap:butt;stroke-linejoin:miter;stroke:#1e40af;stroke-opacity:1;stroke-miterlimit:4;" d="M 55.000313 30 C 55.000313 30.818063 54.959462 31.636126 54.879395 32.450916 C 54.799328 33.265707 54.680045 34.073953 54.519911 34.877291 C 54.359777 35.680628 54.160426 36.474149 53.923493 37.257854 C 53.68656 38.039922 53.410411 38.810537 53.096679 39.566427 C 52.782947 40.323953 52.433267 41.063482 52.047638 41.785013 C 51.662009 42.506545 51.242066 43.208443 50.786174 43.889071 C 50.331916 44.569699 49.844978 45.227422 49.32536 45.860602 C 48.805741 46.492147 48.25671 47.09915 47.678267 47.678338 C 47.09819 48.25589 46.491968 48.805629 45.859602 49.325917 C 45.227236 49.844568 44.57036 50.332134 43.888974 50.786977 C 43.209221 51.24182 42.506592 51.662304 41.784355 52.04843 C 41.062118 52.434555 40.323541 52.78305 39.566989 53.097186 C 38.810438 53.409686 38.040814 53.686192 37.256484 53.92343 C 36.473788 54.160668 35.679654 54.360275 34.87735 54.51898 C 34.073412 54.67932 33.264572 54.798757 32.45083 54.878927 C 31.635454 54.959097 30.818443 55.000001 29.999799 55.000001 C 29.181155 55.000001 28.364145 54.959097 27.548768 54.878927 C 26.735026 54.798757 25.926186 54.67932 25.122248 54.51898 C 24.319944 54.360275 23.52581 54.160668 22.743114 53.92343 C 21.958784 53.686192 21.189161 53.409686 20.432609 53.097186 C 19.676058 52.78305 18.93748 52.434555 18.215243 52.04843 C 17.493006 51.662304 16.792011 51.24182 16.110625 50.786977 C 15.429238 50.332134 14.772362 49.844568 14.139996 49.325917 C 13.50763 48.805629 12.901409 48.25589 12.322965 47.678338 C 11.742888 47.09915 11.193857 46.492147 10.674239 45.860602 C 10.15462 45.227422 9.667682 44.569699 9.213424 43.889071 C 8.759167 43.208443 8.337589 42.506545 7.951961 41.785013 C 7.566332 41.063482 7.216651 40.323953 6.902919 39.566427 C 6.589187 38.810537 6.314672 38.039922 6.076105 37.257854 C 5.839172 36.474149 5.639822 35.680628 5.479687 34.877291 C 5.321188 34.073953 5.20027 33.265707 5.120203 32.450916 C 5.040136 31.636126 4.999285 30.818063 4.999285 30 C 4.999285 29.181937 5.040136 28.363874 5.120203 27.549084 C 5.20027 26.734293 5.321188 25.926047 5.479687 25.122709 C 5.639822 24.319372 5.839172 23.525851 6.076105 22.742146 C 6.314672 21.960078 6.589187 21.189463 6.902919 20.433573 C 7.216651 19.676047 7.566332 18.936518 7.951961 18.214987 C 8.337589 17.493455 8.759167 16.791557 9.213424 16.110929 C 9.667682 15.430301 10.15462 14.772578 10.674239 14.139397 C 11.193857 13.507853 11.742888 12.90085 12.322965 12.321662 C 12.901409 11.744109 13.50763 11.194371 14.139996 10.674083 C 14.772362 10.155431 15.429238 9.667866 16.110625 9.213023 C 16.792011 8.75818 17.493006 8.337696 18.215243 7.95157 C 18.93748 7.565444 19.676058 7.21695 20.432609 6.902813 C 21.189161 6.590313 21.958784 6.313808 22.743114 6.07657 C 23.52581 5.839332 24.319944 5.639724 25.122248 5.48102 C 25.926186 5.32068 26.735026 5.201243 27.548768 5.121073 C 28.364145 5.040902 29.181155 4.999999 29.999799 4.999999 C 30.818443 4.999999 31.635454 5.040902 32.45083 5.121073 C 33.264572 5.201243 34.073412 5.32068 34.87735 5.48102 C 35.679654 5.639724 36.473788 5.839332 37.256484 6.07657 C 38.040814 6.313808 38.810438 6.590313 39.566989 6.902813 C 40.323541 7.21695 41.062118 7.565444 41.784355 7.95157 C 42.506592 8.337696 43.209221 8.75818 43.888974 9.213023 C 44.57036 9.667866 45.227236 10.155431 45.859602 10.674083 C 46.491968 11.194371 47.09819 11.744109 47.678267 12.321662 C 48.25671 12.90085 48.805741 13.507853 49.32536 14.139397 C 49.844978 14.772578 50.331916 15.430301 50.786174 16.110929 C 51.242066 16.791557 51.662009 17.493455 52.047638 18.214987 C 52.433267 18.936518 52.782947 19.676047 53.096679 20.433573 C 53.410411 21.189463 53.68656 21.960078 53.923493 22.742146 C 54.160426 23.525851 54.359777 24.319372 54.519911 25.122709 C 54.680045 25.926047 54.799328 26.734293 54.879395 27.549084 C 54.959462 28.363874 55.000313 29.181937 55.000313 30 Z M 55.000313 30 " transform="matrix(2.390576,0,0,2.3875,0.00586003,0.000002)"/></g><path style=" stroke:none;fill-rule:nonzero;fill:#ffffff;fill-opacity:1;" d="M 76.503906 71.625 C 76.503906 71.9375 76.472656 72.25 76.414062 72.554688 C 76.351562 72.863281 76.261719 73.164062 76.140625 73.453125 C 76.019531 73.742188 75.871094 74.015625 75.699219 74.277344 C 75.523438 74.539062 75.324219 74.78125 75.105469 75 C 74.882812 75.222656 74.640625 75.421875 74.378906 75.59375 C 74.117188 75.769531 73.84375 75.917969 73.554688 76.035156 C 73.261719 76.15625 72.964844 76.246094 72.65625 76.308594 C 72.347656 76.371094 72.035156 76.398438 71.722656 76.398438 C 71.410156 76.398438 71.097656 76.371094 70.789062 76.308594 C 70.484375 76.246094 70.183594 76.15625 69.894531 76.035156 C 69.601562 75.917969 69.328125 75.769531 69.066406 75.59375 C 68.804688 75.421875 68.5625 75.222656 68.34375 75 C 68.121094 74.78125 67.921875 74.539062 67.746094 74.277344 C 67.574219 74.015625 67.425781 73.742188 67.304688 73.453125 C 67.1875 73.164062 67.09375 72.863281 67.035156 72.554688 C 66.972656 72.25 66.941406 71.9375 66.941406 71.625 C 66.941406 71.3125 66.972656 71 67.035156 70.695312 C 67.09375 70.386719 67.1875 70.085938 67.304688 69.796875 C 67.425781 69.507812 67.574219 69.234375 67.746094 68.972656 C 67.921875 68.710938 68.121094 68.46875 68.34375 68.25 C 68.5625 68.027344 68.804688 67.828125 69.066406 67.65625 C 69.328125 67.480469 69.601562 67.332031 69.894531 67.214844 C 70.183594 67.09375 70.484375 67.003906 70.789062 66.941406 C 71.097656 66.878906 71.410156 66.851562 71.722656 66.851562 C 72.035156 66.851562 72.347656 66.878906 72.65625 66.941406 C 72.964844 67.003906 73.261719 67.09375 73.554688 67.214844 C 73.84375 67.332031 74.117188 67.480469 74.378906 67.65625 C 74.640625 67.828125 74.882812 68.027344 75.105469 68.25 C 75.324219 68.46875 75.523438 68.710938 75.699219 68.972656 C 75.871094 69.234375 76.019531 69.507812 76.140625 69.796875 C 76.261719 70.085938 76.351562 70.386719 76.414062 70.695312 C 76.472656 71 76.503906 71.3125 76.503906 71.625 Z M 76.503906 71.625 "/><path style=" stroke:none;fill-rule:nonzero;fill:#ffffff;fill-opacity:1;" d="M 71.722656 42.976562 L 81.285156 62.074219 L 71.722656 57.300781 L 62.160156 62.074219 Z M 71.722656 42.976562 "/><path style=" stroke:none;fill-rule:nonzero;fill:#ffffff;fill-opacity:1;" d="M 100.410156 71.625 L 81.285156 81.175781 L 86.066406 71.625 L 81.285156 62.074219 Z M 100.410156 71.625 "/><path style=" stroke:none;fill-rule:nonzero;fill:#ffffff;fill-opacity:1;" d="M 71.722656 100.273438 L 62.160156 81.175781 L 71.722656 85.949219 L 81.285156 81.175781 Z M 71.722656 100.273438 "/><path style=" stroke:none;fill-rule:nonzero;fill:#ffffff;fill-opacity:1;" d="M 43.035156 71.625 L 62.160156 62.074219 L 57.378906 71.625 L 62.160156 81.175781 Z M 43.035156 71.625 "/><path style=" stroke:none;fill-rule:nonzero;fill:#ffffff;fill-opacity:0.8;" d="M 94.433594 52.523438 C 94.433594 53 94.34375 53.457031 94.160156 53.894531 C 93.980469 54.335938 93.71875 54.722656 93.382812 55.058594 C 93.046875 55.394531 92.660156 55.652344 92.21875 55.832031 C 91.78125 56.015625 91.324219 56.105469 90.847656 56.105469 C 90.371094 56.105469 89.914062 56.015625 89.476562 55.832031 C 89.035156 55.652344 88.648438 55.394531 88.3125 55.058594 C 87.976562 54.722656 87.71875 54.335938 87.535156 53.894531 C 87.351562 53.457031 87.261719 53 87.261719 52.523438 C 87.261719 52.050781 87.351562 51.59375 87.535156 51.15625 C 87.71875 50.714844 87.976562 50.328125 88.3125 49.992188 C 88.648438 49.65625 89.035156 49.398438 89.476562 49.214844 C 89.914062 49.035156 90.371094 48.945312 90.847656 48.945312 C 91.324219 48.945312 91.78125 49.035156 92.21875 49.214844 C 92.660156 49.398438 93.046875 49.65625 93.382812 49.992188 C 93.71875 50.328125 93.980469 50.714844 94.160156 51.15625 C 94.34375 51.59375 94.433594 52.050781 94.433594 52.523438 Z M 94.433594 52.523438 "/><path style=" stroke:none;fill-rule:nonzero;fill:#ffffff;fill-opacity:0.8;" d="M 94.433594 90.726562 C 94.433594 91.199219 94.34375 91.65625 94.160156 92.09375 C 93.980469 92.535156 93.71875 92.921875 93.382812 93.257812 C 93.046875 93.59375 92.660156 93.851562 92.21875 94.035156 C 91.78125 94.214844 91.324219 94.304688 90.847656 94.304688 C 90.371094 94.304688 89.914062 94.214844 89.476562 94.035156 C 89.035156 93.851562 88.648438 93.59375 88.3125 93.257812 C 87.976562 92.921875 87.71875 92.535156 87.535156 92.09375 C 87.351562 91.65625 87.261719 91.199219 87.261719 90.726562 C 87.261719 90.25 87.351562 89.792969 87.535156 89.355469 C 87.71875 88.914062 87.976562 88.527344 88.3125 88.191406 C 88.648438 87.855469 89.035156 87.597656 89.476562 87.417969 C 89.914062 87.234375 90.371094 87.144531 90.847656 87.144531 C 91.324219 87.144531 91.78125 87.234375 92.21875 87.417969 C 92.660156 87.597656 93.046875 87.855469 93.382812 88.191406 C 93.71875 88.527344 93.980469 88.914062 94.160156 89.355469 C 94.34375 89.792969 94.433594 90.25 94.433594 90.726562 Z M 94.433594 90.726562 "/><path style=" stroke:none;fill-rule:nonzero;fill:#ffffff;fill-opacity:0.8;" d="M 56.183594 90.726562 C 56.183594 91.199219 56.09375 91.65625 55.910156 92.09375 C 55.730469 92.535156 55.46875 92.921875 55.132812 93.257812 C 54.796875 93.59375 54.410156 93.851562 53.972656 94.035156 C 53.53125 94.214844 53.074219 94.304688 52.597656 94.304688 C 52.121094 94.304688 51.664062 94.214844 51.226562 94.035156 C 50.785156 93.851562 50.398438 93.59375 50.0625 93.257812 C 49.726562 92.921875 49.46875 92.535156 49.285156 92.09375 C 49.105469 91.65625 49.011719 91.199219 49.011719 90.726562 C 49.011719 90.25 49.105469 89.792969 49.285156 89.355469 C 49.46875 88.914062 49.726562 88.527344 50.0625 88.191406 C 50.398438 87.855469 50.785156 87.597656 51.226562 87.417969 C 51.664062 87.234375 52.121094 87.144531 52.597656 87.144531 C 53.074219 87.144531 53.53125 87.234375 53.972656 87.417969 C 54.410156 87.597656 54.796875 87.855469 55.132812 88.191406 C 55.46875 88.527344 55.730469 88.914062 55.910156 89.355469 C 56.09375 89.792969 56.183594 90.25 56.183594 90.726562 Z M 56.183594 90.726562 "/><path style=" stroke:none;fill-rule:nonzero;fill:#ffffff;fill-opacity:0.8;" d="M 56.183594 52.523438 C 56.183594 53 56.09375 53.457031 55.910156 53.894531 C 55.730469 54.335938 55.46875 54.722656 55.132812 55.058594 C 54.796875 55.394531 54.410156 55.652344 53.972656 55.832031 C 53.53125 56.015625 53.074219 56.105469 52.597656 56.105469 C 52.121094 56.105469 51.664062 56.015625 51.226562 55.832031 C 50.785156 55.652344 50.398438 55.394531 50.0625 55.058594 C 49.726562 54.722656 49.46875 54.335938 49.285156 53.894531 C 49.105469 53.457031 49.011719 53 49.011719 52.523438 C 49.011719 52.050781 49.105469 51.59375 49.285156 51.15625 C 49.46875 50.714844 49.726562 50.328125 50.0625 49.992188 C 50.398438 49.65625 50.785156 49.398438 51.226562 49.214844 C 51.664062 49.035156 52.121094 48.945312 52.597656 48.945312 C 53.074219 48.945312 53.53125 49.035156 53.972656 49.214844 C 54.410156 49.398438 54.796875 49.65625 55.132812 49.992188 C 55.46875 50.328125 55.730469 50.714844 55.910156 51.15625 C 56.09375 51.59375 56.183594 52.050781 56.183594 52.523438 Z M 56.183594 52.523438 "/><path style="fill:none;stroke-width:0.5;stroke-linecap:butt;stroke-linejoin:miter;stroke:#ffffff;stroke-opacity:0.6;stroke-miterlimit:4;" d="M -0.00020044 0.000000933137 L 7.999964 -8.000654 " transform="matrix(2.390576,0,0,2.3875,71.723135,71.624998)"/><path style="fill:none;stroke-width:0.5;stroke-linecap:butt;stroke-linejoin:miter;stroke:#ffffff;stroke-opacity:0.6;stroke-miterlimit:4;" d="M -0.00020044 0.000000933137 L 7.999964 8.000656 " transform="matrix(2.390576,0,0,2.3875,71.723135,71.624998)"/><path style="fill:none;stroke-width:0.5;stroke-linecap:butt;stroke-linejoin:miter;stroke:#ffffff;stroke-opacity:0.6;stroke-miterlimit:4;" d="M -0.00020044 0.000000933137 L -8.000365 8.000656 " transform="matrix(2.390576,0,0,2.3875,71.723135,71.624998)"/><path style="fill:none;stroke-width:0.5;stroke-linecap:butt;stroke-linejoin:miter;stroke:#ffffff;stroke-opacity:0.6;stroke-miterlimit:4;" d="M -0.00020044 0.000000933137 L -8.000365 -8.000654 " transform="matrix(2.390576,0,0,2.3875,71.723135,71.624998)"/></g></svg>